<?xml version="1.0" encoding="UTF-8" standalone="no"?>
<!-- Created with Inkscape (http://www.inkscape.org/) -->

<svg
   version="1.1"
   id="svg2"
   width="666.66669"
   height="666.66669"
   viewBox="0 0 666.66669 666.66669"
   sodipodi:docname="logo.ai"
   xmlns:inkscape="http://www.inkscape.org/namespaces/inkscape"
   xmlns:sodipodi="http://sodipodi.sourceforge.net/DTD/sodipodi-0.dtd"
   xmlns="http://www.w3.org/2000/svg"
   xmlns:svg="http://www.w3.org/2000/svg">
  <defs
     id="defs6">
    <clipPath
       clipPathUnits="userSpaceOnUse"
       id="clipPath18">
      <path
         d="M 0,500 H 500 V 0 H 0 Z"
         id="path16" />
    </clipPath>
  </defs>
  <sodipodi:namedview
     id="namedview4"
     pagecolor="#ffffff"
     bordercolor="#000000"
     borderopacity="0.25"
     inkscape:showpageshadow="2"
     inkscape:pageopacity="0.0"
     inkscape:pagecheckerboard="0"
     inkscape:deskcolor="#d1d1d1" />
  <g
     id="g8"
     inkscape:groupmode="layer"
     inkscape:label="logo"
     transform="matrix(1.3333333,0,0,-1.3333333,0,666.66667)">
    <path
       d="M 0,0 H 500 V 500 H 0 Z"
       style="fill:#ffffff;fill-opacity:1;fill-rule:nonzero;stroke:none"
       id="path10" />
    <g
       id="g12">
      <g
         id="g14"
         clip-path="url(#clipPath18)">
        <g
           id="g20"
           transform="translate(370.2725,317.5547)">
          <path
             d="M 0,0 0.043,0.11 -0.12,0.102 Z m -203.323,-56.401 c 0.201,0.118 0.405,0.214 0.574,0.355 0.034,0.028 -0.064,0.217 -0.102,0.332 -0.204,-0.098 -0.416,-0.186 -0.605,-0.308 -0.023,-0.015 0.073,-0.213 0.133,-0.379 m -23.775,81.272 c -0.399,-1.538 -0.948,-2.945 -0.62,-4.545 0.292,0.02 0.566,-0.039 0.748,0.064 3.074,1.736 6.136,3.49 9.194,5.255 0.084,0.048 0.081,0.248 0.164,0.536 -1.7,-0.416 -3.309,-0.832 -4.929,-1.199 -1.465,-0.332 -2.941,-0.638 -4.557,-0.111 m 168.552,-56.624 c 0.095,-0.14 0.189,-0.28 0.283,-0.419 0.63,0.34 1.282,0.646 1.884,1.029 1.426,0.908 2.832,1.846 4.238,2.784 5.557,3.706 10.162,8.385 14.053,13.788 1.363,1.892 2.697,3.806 4.039,5.714 0.91,1.295 1.81,2.597 3.001,4.307 -2.624,-1.318 -4.711,-2.449 -6.207,-4.456 -1.346,-1.805 -2.84,-3.5 -4.165,-5.319 -4.385,-6.019 -9.294,-11.518 -15.36,-15.911 -0.627,-0.453 -1.179,-1.009 -1.766,-1.517 m -140.558,83.148 c 0,-0.148 -0.041,-0.312 0.007,-0.441 0.226,-0.604 0.466,-1.203 0.717,-1.796 2.166,-5.102 3.439,-10.387 3.33,-15.966 -0.033,-1.706 -0.222,-3.371 -0.879,-4.966 -0.174,-0.421 -0.246,-0.884 -0.397,-1.453 2.622,-0.967 4.777,-2.581 7.354,-3.481 -1.979,2.177 -2.156,4.828 -2.255,7.501 -0.011,0.322 -0.029,0.645 -0.024,0.967 0.058,3.534 -0.734,6.869 -2.328,10.022 -0.545,1.079 -1.001,2.203 -1.576,3.265 -1.183,2.187 -2.279,4.429 -3.949,6.348 m 148.313,13.458 c 0.633,-0.286 1.192,-0.578 1.778,-0.797 3.69,-1.378 5.886,-4.067 6.936,-7.796 0.26,-0.924 0.618,-1.821 0.921,-2.698 2.366,-1.174 4.743,-2.208 5.927,-4.778 1.067,-0.101 2.193,0.402 3.228,-0.08 0.005,-0.536 0.009,-0.946 0.013,-1.362 1.169,-0.06 2.068,0.998 3.237,0.243 -0.058,-0.477 -0.121,-1.002 -0.211,-1.748 0.774,0.35 1.388,0.689 2.044,0.899 0.351,0.112 0.772,0 1.138,-0.01 0.076,-0.419 0.131,-0.724 0.183,-1.014 0.473,-0.136 0.908,-0.261 1.351,-0.389 -0.117,-0.581 -0.217,-1.076 -0.346,-1.721 0.606,0.145 0.986,0.272 1.375,0.322 0.56,0.074 0.93,-0.153 0.97,-0.763 -0.328,-0.414 -0.651,-0.823 -1.187,-1.497 2.933,0.017 5.393,-1.078 8.185,-1.044 -0.177,0.478 -0.261,0.779 -0.397,1.056 -1.096,2.233 -2.81,3.914 -4.851,5.268 -2.223,1.475 -4.603,2.665 -7.147,3.473 -3.176,1.008 -6.091,2.492 -8.816,4.411 -1.913,1.346 -3.29,3.048 -4.11,5.227 -0.624,1.657 -1.183,3.349 -1.94,4.946 -0.824,1.74 -1.778,3.428 -2.798,5.062 -0.722,1.158 -1.786,2 -3.155,2.464 -0.861,-1.217 -0.329,-2.624 -0.822,-3.812 -0.491,-1.183 -0.934,-2.387 -1.506,-3.862 m -105.558,-91.636 c 0.063,-0.131 0.125,-0.261 0.188,-0.392 0.374,0.084 0.762,0.129 1.12,0.258 1.97,0.709 3.975,1.341 5.891,2.177 7.923,3.461 16.233,4.573 24.79,4.121 3.774,-0.199 7.355,-1.204 10.242,-3.77 2.283,-2.028 4.533,-4.117 6.357,-6.604 1,-1.363 2.048,-2.692 3.045,-4.057 1.474,-2.017 3.41,-3.346 5.754,-4.204 3.834,-1.405 7.817,-1.889 11.849,-2.124 2.25,-0.132 4.505,-0.185 6.756,-0.302 5.608,-0.293 10.736,-1.991 15.319,-5.273 2.233,-1.599 4.31,-3.37 6.159,-5.41 1.244,-1.371 2.536,-2.699 3.815,-4.039 1.817,-1.906 3.999,-3.227 6.506,-4.019 5.441,-1.717 10.66,-0.954 15.72,1.441 0.315,0.148 0.53,0.507 0.847,0.823 -0.475,0.523 -0.836,0.951 -1.229,1.349 -4.012,4.076 -8.133,8.04 -12.466,11.777 -2.694,2.323 -5.602,4.334 -8.775,5.955 -5.066,2.589 -10.341,4.454 -16.072,4.892 -5.068,0.387 -10.135,0.404 -15.204,0.205 -4.441,-0.174 -8.85,0.187 -13.252,0.659 -3.146,0.337 -5.896,1.549 -8.062,3.942 -1.35,1.493 -2.791,2.906 -4.105,4.429 -1.955,2.265 -4.103,4.327 -6.417,6.206 -1.244,1.01 -2.564,1.971 -3.971,2.727 -5.296,2.852 -11,3.503 -16.887,2.771 -2.343,-0.292 -4.548,-1.129 -6.452,-2.562 -1.412,-1.063 -2.799,-2.178 -4.075,-3.398 -2.211,-2.114 -4.33,-4.324 -6.479,-6.503 -0.33,-0.334 -0.609,-0.716 -0.912,-1.075 m -25.533,22.425 0.038,-0.046 c -0.614,0.82 -1.228,1.64 -2.002,2.672 0.945,-0.134 1.66,-0.235 2.521,-0.356 -1.095,1.669 -2.728,2.127 -4.47,2.67 1.549,0.852 3.098,-0.237 4.603,0.475 -0.555,0.28 -0.989,0.486 -1.41,0.715 -0.424,0.231 -0.825,0.51 -1.257,0.723 -0.433,0.212 -0.906,0.344 -1.337,0.557 -0.359,0.177 -0.877,0.025 -1.216,0.453 0.902,0.617 1.674,0.089 2.444,0.064 0.797,-0.026 1.598,-0.062 2.308,0.422 -0.545,0.77 -0.543,0.814 -0.444,2.05 0.033,0.399 -0.04,0.807 -0.014,1.207 0.09,1.446 0.201,2.891 0.305,4.336 0.089,1.242 0.608,2.346 1.234,3.375 1.214,1.999 3.667,2.971 5.867,2.304 1.985,-0.602 3.705,-1.656 4.622,-3.615 0.578,-1.234 1.182,-2.51 1.428,-3.832 0.351,-1.887 0.476,-3.831 0.531,-5.755 0.056,-1.929 -0.162,-3.865 -0.14,-5.797 0.03,-2.594 -0.017,-5.161 -1.375,-8.035 1.116,1.029 1.474,1.884 1.824,2.757 1.151,2.872 1.653,5.887 2.018,8.935 0.738,6.153 -0.051,12.032 -2.873,17.624 -1.091,2.163 -2.054,4.374 -3.646,6.238 -0.311,0.364 -0.539,0.802 -0.78,1.22 -0.066,0.115 -0.042,0.281 -0.059,0.431 0.597,-0.123 1.188,-0.246 2.1,-0.434 -0.577,0.627 -0.924,1.005 -1.338,1.455 0.601,0.433 1.089,0.785 1.6,1.152 -0.625,0.619 -1.144,0.252 -1.663,0.086 -0.421,-0.134 -0.848,-0.492 -1.247,0.022 0.262,1.259 1.414,1.513 2.357,1.948 -0.501,0.816 -1.665,0.574 -1.829,1.536 0.54,0.781 1.78,0.212 2.231,1.166 -0.539,0.753 -1.061,1.444 -1.528,2.171 -0.083,0.129 0.064,0.405 0.102,0.607 0.691,-0.036 1.306,-0.067 1.91,-0.098 0.364,1.563 -1.278,2.489 -1.01,4.099 0.983,-0.283 1.875,-0.541 2.944,-0.849 -0.225,1.923 -2.066,2.821 -2.313,4.768 0.628,-0.331 1.065,-0.51 1.444,-0.771 0.594,-0.41 1.131,-0.904 1.733,-1.302 0.208,-0.137 0.535,-0.094 0.898,-0.147 -0.252,1.992 -1.661,3.265 -2.22,4.857 0.338,0.478 0.688,0.528 1.1,0.308 0.714,-0.38 1.29,-1.08 2.253,-1.118 -0.16,1.516 -1.313,2.525 -1.399,3.932 1.147,0.182 1.765,-1.266 2.975,-0.772 -0.008,0.887 -1.116,1.487 -0.716,2.297 1.117,1.351 2.882,0.586 4.117,1.519 -2.41,1.587 -5.134,2.609 -10.843,4.105 -0.12,-0.1 -0.301,-0.177 -0.349,-0.304 -0.967,-2.536 -2.605,-4.618 -4.433,-6.569 -1.344,-1.434 -2.375,-3.067 -2.961,-4.937 -1.286,-4.107 -2.977,-7.994 -5.826,-11.288 -0.106,-0.122 -0.206,-0.251 -0.287,-0.39 -0.659,-1.118 -1.136,-2.294 -1.376,-3.587 -0.481,-2.584 -0.341,-5.137 0.24,-7.675 0.646,-2.827 1.336,-5.645 2.02,-8.464 0.375,-1.545 0.729,-3.085 0.141,-5.275 -0.573,3.084 -2.353,4.723 -4.087,6.393 -0.754,0.728 -1.509,1.453 -2.27,2.172 -3.238,3.055 -7.031,5.136 -11.345,6.157 -4.158,0.984 -8.326,0.953 -12.347,-0.7 -2.606,-1.071 -5.19,-2.194 -7.65,-3.599 -2.028,-1.157 -4.141,-2.166 -6.238,-3.196 -2.514,-1.233 -4.65,-2.879 -6.136,-5.297 -0.421,-0.685 -0.87,-1.356 -1.347,-2.005 -2.167,-2.949 -4.955,-5.037 -8.487,-6.094 -2.878,-0.861 -5.808,-1.322 -8.818,-1.223 -0.61,0.02 -1.22,0.002 -2.044,0.001 0.291,-0.72 0.49,-1.226 0.697,-1.73 0.49,-1.191 1.054,-2.358 1.462,-3.577 0.973,-2.906 1.732,-5.867 2.232,-8.9 0.605,-3.671 1.655,-7.226 3.118,-10.65 1.807,-4.23 5.254,-6.607 9.38,-8.173 0.502,-0.191 1.106,-0.133 1.663,-0.148 0.111,-0.003 0.226,0.187 0.367,0.313 0.198,0.865 -1.337,1.017 -0.824,2.107 0.343,0.166 0.77,0.371 1.185,0.57 0.008,0.713 0.217,1.5 -0.03,2.1 -0.282,0.688 -0.968,1.21 -1.503,1.832 0.871,0.334 1.721,-0.705 2.612,0.206 -0.369,0.487 -0.756,0.969 -1.111,1.473 -0.339,0.479 -0.954,0.772 -1.133,1.373 0.949,0.66 2.054,-0.198 2.817,0.627 -0.963,0.949 -2.522,1.091 -3.41,2.565 1.614,-0.173 3.008,-0.323 4.401,-0.472 0.132,0.118 0.264,0.236 0.396,0.353 -0.21,0.129 -0.41,0.276 -0.63,0.385 -1.298,0.641 -2.604,1.268 -3.899,1.915 -0.232,0.115 -0.669,0.154 -0.322,0.73 0.427,-0.093 0.89,-0.188 1.35,-0.296 0.391,-0.092 0.775,-0.23 1.172,-0.292 0.404,-0.064 0.819,-0.536 1.249,-0.043 -0.705,1.244 -2.479,1.132 -3.228,2.727 1.672,-0.482 3.109,-0.896 4.769,-1.374 -0.425,0.868 -1.034,1.1 -1.572,1.401 -1.476,0.826 -2.969,1.621 -4.434,2.464 -0.29,0.167 -0.708,0.395 -0.361,1.014 2.217,-0.639 4.457,-1.285 6.697,-1.93 -0.503,0.712 -1.138,1.139 -1.872,1.446 -1.635,0.685 -3.259,1.395 -4.882,2.107 -0.342,0.15 -0.778,0.276 -0.51,0.915 0.923,-0.225 1.855,-0.471 2.796,-0.676 1.191,-0.261 1.193,-0.246 2.658,0.143 -1.065,0.541 -2.112,0.975 -3.054,1.575 -0.97,0.619 -2.149,0.982 -3.271,2.383 3.12,-1.046 5.708,-1.914 8.706,-2.92 -1.302,1.044 -2.278,1.837 -3.264,2.616 -2.024,1.599 -2.027,1.596 -2.538,2.791 1.106,-0.09 2.025,-0.555 2.975,-0.923 1.126,-0.437 2.265,-0.843 3.4,-1.252 0.227,-0.082 0.465,-0.143 0.704,-0.176 0.162,-0.023 0.334,0.02 0.635,0.045 -1.91,1.431 -3.648,2.727 -5.372,4.043 -0.071,0.055 -0.008,0.286 -0.006,0.699 2.802,-0.545 5.183,-2.368 8.484,-2.672 -1.177,0.934 -1.996,1.554 -2.781,2.216 -0.612,0.518 -1.201,1.067 -1.755,1.646 -0.132,0.137 -0.194,0.552 -0.094,0.656 0.19,0.2 0.567,0.432 0.781,0.368 1.768,-0.536 3.516,-1.138 5.291,-1.721 0.269,-0.078 0.537,-0.155 0.806,-0.233 0.008,0.049 0.015,0.097 0.024,0.146 -0.289,0.033 -0.577,0.065 -0.866,0.098 -0.072,0.281 -0.06,0.639 -0.232,0.828 -0.706,0.771 -1.486,1.474 -2.204,2.235 -0.252,0.267 -0.406,0.626 -0.665,1.04 1.67,1.184 3.001,-0.259 4.588,-0.366 -0.316,1.563 -1.271,2.655 -2.202,4.105 2.614,-0.522 4.319,-2.235 6.72,-2.977 -0.506,1.157 -1.275,1.763 -1.854,2.511 -0.556,0.719 -1.414,1.297 -1.451,2.59 2.555,-0.462 4.09,-2.709 6.616,-3.149 -1.058,1.917 -2.611,3.403 -3.069,5.769 1.726,-0.999 2.869,-2.5 4.815,-3.182 -0.946,1.216 -1.762,2.211 -2.502,3.26 -0.167,0.237 -0.072,0.66 -0.113,1.204 1.578,-0.564 2.923,-1.046 4.411,-1.578 -0.658,1.232 -1.818,1.991 -2.168,3.401 1.897,-0.237 3.15,-1.788 5.076,-1.934 -0.187,0.998 -0.752,1.535 -1.265,2.125 -0.563,0.647 -1.314,1.171 -1.587,2.083 1.461,0.135 2.129,-1.37 3.726,-1.6 -0.514,0.512 -0.798,0.782 -1.067,1.068 -0.249,0.263 -0.664,0.454 -0.424,1.103 0.597,-0.117 1.213,-0.187 1.798,-0.361 1.081,-0.321 2.131,-0.749 3.216,-1.05 5.502,-1.527 10.454,-4.168 15.112,-7.406 1.618,-1.125 3.152,-2.377 5.306,-3.16 -0.529,-0.277 -0.777,-0.482 -1.054,-0.537 -0.787,-0.154 -1.608,-0.163 -2.374,-0.379 -1.952,-0.549 -3.932,-0.814 -5.952,-0.925 -1.201,-0.066 -2.42,-0.195 -3.582,-0.489 -1.717,-0.435 -2.376,-1.135 -1.221,-2.926 1.796,-2.784 3.243,-5.745 4.481,-8.821 1.491,-3.703 3.638,-7.019 6.476,-9.822 3.554,-3.511 7.332,-6.772 11.483,-9.578 1.8,-1.216 3.681,-2.333 5.375,-3.683 5.042,-4.016 10.254,-7.784 15.62,-11.356 4.248,-2.826 7.397,-6.665 9.52,-11.319 0.834,-1.833 1.675,-3.665 2.435,-5.529 1.274,-3.127 3.266,-5.718 5.753,-7.955 0.169,-0.152 0.378,-0.558 0.804,-0.1 -0.267,0.373 -0.529,0.766 -0.818,1.139 -1.635,2.111 -2.972,4.382 -4.047,6.841 -1.126,2.578 -2.284,5.173 -3.746,7.567 -2.305,3.776 -4.874,7.393 -7.342,11.069 -0.314,0.466 -0.691,0.892 -1.056,1.321 -3.657,4.301 -7.755,8.172 -11.81,12.085 -0.338,0.326 -0.792,0.691 -0.865,1.098 -0.137,0.752 -0.66,1.068 -1.166,1.449 -0.559,0.423 -1.134,0.828 -1.704,1.244 0.097,0.337 0.187,0.562 0.223,0.795 0.044,0.288 0.044,0.582 0.061,0.844 -0.292,0.084 -0.444,0.139 -0.6,0.169 -0.158,0.03 -0.323,0.022 -0.48,0.052 -1.434,0.271 -1.454,0.308 -1.331,1.927 0.009,0.109 -0.126,0.228 -0.214,0.375 -0.434,-0.12 -0.881,-0.243 -1.435,-0.396 -0.807,1.079 -2.02,1.652 -3.125,2.341 0.204,0.476 0.349,0.817 0.493,1.152 -0.792,0.228 -1.534,0.442 -2.322,0.669 0.136,0.474 0.258,0.895 0.418,1.452 -0.927,-0.17 -1.869,-0.793 -2.527,0.248 0.354,0.743 1.443,0.82 1.415,1.793 -0.984,0.129 -1.925,0.252 -2.909,0.382 0.346,0.908 1.622,0.534 1.735,1.654 -0.613,0.839 -1.825,0.564 -2.751,1.095 0.914,0.937 2.276,0.672 3.068,1.601 -0.79,0.533 -1.592,0.543 -2.393,0.555 M -0.581,-123.949 c 0.014,0.543 -0.271,0.618 -0.875,0.425 0.407,-0.163 0.68,-0.271 0.951,-0.379 0.453,-0.436 0.854,-0.952 1.369,-1.294 2.868,-1.902 5.009,-4.521 7.145,-7.147 0.233,-0.287 0.372,-0.652 0.715,-1.271 -1.937,0.678 -3.308,1.646 -4.729,2.53 -1.367,0.851 -2.721,1.743 -4.165,2.439 -1.484,0.715 -2.732,1.921 -4.771,2.347 1.51,-1.252 2.817,-2.191 3.946,-3.31 1.194,-1.187 2.292,-2.49 3.302,-3.84 1.57,-2.101 1.991,-3.078 2.074,-4.275 -3.821,1.864 -6.761,4.983 -10.845,6.854 1.48,-1.707 2.838,-3.089 3.972,-4.636 1.101,-1.503 2.616,-2.771 3.205,-4.943 -4.028,1.699 -7.102,4.464 -10.749,6.372 0.496,-1.099 1.375,-1.887 2.045,-2.822 0.702,-0.983 1.417,-1.96 2.055,-2.984 0.619,-0.991 1.446,-1.902 1.634,-3.459 -1.177,0.276 -1.882,0.939 -2.668,1.406 -0.76,0.453 -1.486,0.963 -2.238,1.431 -0.762,0.473 -1.288,1.367 -2.462,1.452 0.802,-2.193 2.421,-3.796 2.988,-5.858 -0.413,-0.617 -0.839,-0.568 -1.26,-0.182 -1.425,1.304 -2.833,2.626 -4.262,3.926 -0.292,0.266 -0.436,0.8 -1.105,0.716 0.358,-0.925 0.657,-1.756 0.998,-2.569 0.438,-1.04 0.923,-2.059 1.357,-3.099 0.107,-0.257 0.264,-0.617 -0.37,-0.759 -1.098,1.948 -3.389,2.392 -5.209,4.098 0.216,-1.345 0.921,-2.028 1.293,-2.86 0.16,-0.358 0.34,-0.734 -0.24,-1.115 -0.286,0.136 -0.666,0.255 -0.975,0.476 -1.318,0.938 -2.518,2.006 -3.478,3.325 -0.213,0.294 -0.393,0.744 -0.941,0.503 0.569,-2.274 2.339,-4.014 2.954,-6.394 -1.118,-0.083 -1.761,0.586 -2.46,1.049 -0.736,0.486 -1.435,1.043 -2.083,1.643 -0.708,0.655 -1.334,1.398 -2.003,2.095 -0.586,0.61 -1.008,1.394 -2.145,2.123 0.252,-0.767 0.337,-1.124 0.481,-1.453 0.683,-1.549 1.391,-3.086 2.068,-4.636 0.153,-0.35 0.339,-0.761 -0.241,-1.036 -1.879,1.372 -3.5,3.02 -4.918,4.879 -0.173,0.227 -0.333,0.575 -0.751,0.224 0.221,-1.356 0.908,-2.549 1.492,-3.782 0.145,-0.309 0.543,-0.646 0.028,-1.043 -1.616,0.991 -3.236,1.984 -4.866,2.984 -0.18,-1.053 0.809,-1.822 0.453,-2.952 -0.607,0.175 -1.175,0.258 -1.662,0.501 -0.571,0.284 -1.088,0.687 -1.598,1.078 -0.444,0.343 -0.841,0.748 -1.269,1.114 -0.452,0.387 -0.714,1.001 -1.528,1.393 0.259,-1.564 1.082,-2.566 1.734,-3.705 -1.881,-0.79 -3.528,-0.537 -5.06,0.621 -0.577,0.436 -1.144,0.889 -1.719,1.327 -0.236,0.18 -0.404,0.544 -0.844,0.298 0.064,-0.206 0.075,-0.463 0.204,-0.628 1.551,-1.996 3.385,-3.696 5.672,-4.788 2.847,-1.359 5.841,-2.3 8.958,-2.859 10.958,-1.966 21.657,-0.857 32.162,2.645 2.078,0.693 4.019,1.695 5.815,2.927 1.791,1.228 3.505,2.575 5.211,3.923 3.097,2.447 6.043,5.114 9.558,6.968 4.13,2.18 8.209,4.478 12.584,6.166 4.901,1.893 8.931,5.035 12.664,8.836 -1.431,0.886 -2.783,1.721 -4.132,2.56 -2.553,1.587 -4.659,3.688 -6.79,5.779 -1.853,1.82 -3.498,3.769 -4.877,5.972 -0.679,1.085 -1.532,2.074 -2.395,3.026 -0.774,0.857 -1.738,1.38 -2.981,1.354 -0.795,-0.017 -1.597,0.178 -2.393,0.302 -1.286,0.201 -2.535,0.313 -3.77,-0.338 -0.464,-0.245 -1.089,-0.204 -1.644,-0.25 -0.596,-0.049 -1.195,-0.047 -2.115,-0.077 1.008,-0.862 1.972,-1.035 2.854,-1.352 0.909,-0.328 1.845,-0.579 2.765,-0.877 0.92,-0.298 1.835,-0.613 2.751,-0.921 0.88,-0.295 1.759,-0.591 2.839,-0.953 -0.702,-0.66 -1.37,-0.449 -1.951,-0.476 -0.641,-0.029 -1.287,0.05 -1.93,0.1 -0.642,0.049 -1.281,0.13 -1.923,0.18 -0.642,0.05 -1.286,0.084 -1.929,0.115 -0.724,0.035 -1.449,0.056 -2.173,0.089 -0.643,0.028 -1.287,0.055 -1.93,0.101 -0.643,0.047 -1.282,0.131 -1.926,0.172 -0.56,0.036 -1.127,0.305 -2.221,-0.013 2.981,-1.387 5.536,-2.477 8.255,-3.227 2.757,-0.761 5.625,-1.093 8.578,-2.128 -1.411,-0.557 -2.608,-0.457 -3.779,-0.343 -2.886,0.282 -5.764,0.632 -8.645,0.955 -0.641,0.072 -1.283,0.132 -1.919,0.227 -0.558,0.083 -1.106,0.234 -1.664,0.303 -0.552,0.068 -1.083,0.49 -1.794,0.049 5.246,-2.732 10.765,-4.377 16.478,-5.543 -0.464,-0.748 -1.182,-0.401 -1.771,-0.471 -0.717,-0.085 -1.448,-0.058 -2.172,-0.07 -0.645,-0.013 -1.289,-0.029 -1.933,-0.016 -0.724,0.015 -1.449,0.056 -2.173,0.094 -0.642,0.034 -1.288,0.06 -1.927,0.127 -0.641,0.067 -1.278,0.174 -1.914,0.277 -0.716,0.115 -1.432,0.231 -2.143,0.373 -0.632,0.127 -1.26,0.278 -1.884,0.439 -0.703,0.182 -1.394,0.405 -2.099,0.576 -0.555,0.133 -1.097,0.495 -1.866,0.286 0.29,-0.323 0.413,-0.555 0.605,-0.657 2.909,-1.559 5.805,-3.144 8.753,-4.624 1.213,-0.609 2.527,-1.055 3.942,-0.954 l -0.033,-0.043 c 0.063,-0.59 -0.376,-0.623 -0.762,-0.636 -2.482,-0.089 -4.954,-0.003 -7.353,0.715 -2.908,0.869 -5.803,1.78 -8.72,2.665 -0.2,0.135 -0.401,0.27 -0.602,0.405 -0.033,-0.068 -0.066,-0.137 -0.098,-0.205 l 0.776,-0.173 c 0.16,-0.252 0.27,-0.567 0.489,-0.747 3.219,-2.626 6.456,-5.231 9.677,-7.854 0.218,-0.176 0.347,-0.464 0.54,-0.732 -0.209,-0.081 -0.288,-0.145 -0.335,-0.126 -3.928,1.571 -7.955,2.915 -11.66,5.012 -0.474,0.268 -1.047,0.362 -1.574,0.537 M -7.352,20.904 c 0.286,-0.012 0.637,-0.137 0.843,-0.016 0.619,0.365 1.158,0.867 1.78,1.228 0.223,0.129 0.672,0.118 0.871,-0.029 0.209,-0.154 0.396,-0.597 0.324,-0.828 -0.362,-1.142 -0.811,-2.257 -1.235,-3.379 -0.15,-0.399 -0.319,-0.79 -0.663,-1.631 0.661,0.427 0.944,0.554 1.153,0.756 1.04,1.009 2.05,2.048 3.096,3.048 0.181,0.172 0.495,0.204 1.001,0.399 -0.603,-1.941 -1.172,-3.598 -0.92,-5.469 1.427,0.276 1.542,2 2.69,2.535 0.146,-0.242 0.295,-0.371 0.286,-0.488 -0.13,-1.875 -1.357,-3.303 -2.291,-5.104 1.609,0.402 2.57,1.442 4.105,2.229 -0.5,-1.19 -1.18,-1.773 -1.645,-2.491 C 1.538,10.887 0.823,10.222 0.604,9.265 1.643,8.905 2.475,10.072 3.592,9.342 2.393,7.835 0.438,7.297 -0.812,5.754 0.668,5.289 1.687,6.647 2.917,6.386 3.12,5.597 2.566,5.389 2.195,5.179 1.573,4.825 0.874,4.606 0.219,4.306 0.144,4.272 0.144,4.076 0.105,3.943 0.716,3.521 1.609,4.335 2.104,3.41 1.876,2.306 0.386,2.397 -0.092,1.209 0.94,1.065 1.849,0.937 2.819,0.802 2.283,0.286 1.848,-0.16 1.383,-0.573 0.882,-1.017 0.352,-1.428 -0.521,-2.147 0.597,-2.01 1.314,-2.199 1.773,-1.438 L 1.76,-1.382 C 1.766,-2.086 1.771,-2.791 1.775,-3.379 1.167,-3.677 0.729,-3.873 0.313,-4.106 0.192,-4.174 0.13,-4.347 -0.074,-4.633 0.399,-4.66 0.772,-4.656 1.138,-4.708 1.532,-4.765 2.102,-4.47 2.243,-5.184 1.383,-5.812 0.068,-5.79 -0.425,-7.17 c 0.939,-0.108 1.757,-0.202 2.618,-0.3 -0.617,-1.419 -2.321,-0.617 -3.054,-1.732 1.19,-0.2 1.307,-0.246 2.17,-0.874 -0.852,-0.375 -1.637,-0.72 -2.467,-1.086 0.638,-0.711 1.669,0.42 2.193,-0.762 -0.688,-0.262 -1.367,-0.521 -2.248,-0.856 0.574,-0.512 0.994,-0.887 1.434,-1.279 -0.63,-0.317 -1.483,0.376 -1.861,-0.385 0.307,-0.781 1.379,0.004 1.511,-1.086 -0.771,-0.279 -1.524,-0.513 -2.239,-0.833 -0.243,-0.109 -0.391,-0.431 -0.582,-0.656 -0.121,0.035 -0.242,0.069 -0.364,0.103 0.02,-0.1 0.042,-0.2 0.062,-0.299 l 0.275,0.262 c 0.711,-0.482 1.703,-0.022 2.669,-0.766 -1.378,-0.639 -2.879,-0.583 -3.703,-1.734 0.598,-0.802 1.521,0.08 2.085,-0.639 -0.582,-1.785 -2.653,-1.281 -3.681,-2.395 0.426,-0.607 1.114,-0.481 1.707,-0.603 0.321,-0.066 0.657,-0.097 0.574,-0.663 -0.762,-0.224 -1.565,-0.46 -2.297,-0.675 -0.109,-1.093 1.13,-0.617 1.234,-1.525 -0.699,-0.074 -1.399,-0.117 -2.089,-0.23 -0.818,-0.134 -1.069,-0.985 -0.498,-1.636 0.299,-0.341 0.624,-0.659 1.036,-1.09 -1.539,-0.072 -2.639,-0.557 -3.252,-1.844 0.263,-0.354 0.499,-0.668 0.732,-0.981 -0.138,-0.12 -0.234,-0.258 -0.365,-0.31 -1.233,-0.486 -1.229,-0.486 -2.565,-2.1 -0.203,-0.245 -0.459,-0.454 -0.714,-0.648 -1.087,-0.832 -2.157,-1.692 -3.284,-2.468 -5.875,-4.047 -12.328,-6.995 -18.839,-9.827 -0.438,-0.19 -0.926,-0.261 -1.379,-0.423 -0.323,-0.116 -0.824,0.058 -0.933,-0.669 0.551,-0.23 1.107,-0.546 1.706,-0.7 2.86,-0.736 5.783,-0.923 8.602,-0.036 3.685,1.16 7.436,2.28 10.889,3.967 4.772,2.331 9.286,5.178 13.504,8.458 1.906,1.483 3.933,2.811 5.89,4.229 1.239,0.898 2.49,1.785 3.67,2.757 3.349,2.758 4.88,6.314 4.533,10.658 -0.135,1.687 -0.178,3.386 -0.4,5.06 -0.486,3.667 -0.18,7.195 1.206,10.672 0.771,1.935 1.24,4.004 1.709,6.044 0.614,2.669 0.037,5.119 -1.707,7.262 -0.61,0.751 -1.255,1.474 -1.84,2.244 -4.236,5.583 -6.436,11.662 -4.49,18.838 -1.859,-0.194 -3.674,0.047 -5.462,0.461 -6.445,1.493 -12.962,2.573 -19.495,3.59 -4.253,0.662 -8.507,0.6 -12.775,0.399 -0.588,-0.028 -1.288,0.038 -1.65,-0.599 0.727,-1.051 1.432,-2.014 2.077,-3.016 0.632,-0.984 0.577,-2.295 1.327,-3.237 1.933,0.977 2.405,1.081 4.291,0.767 2.381,-0.397 4.754,-0.838 7.092,-1.253 0.194,-0.408 0.359,-0.756 0.544,-1.143 1.733,0.332 3.39,0.42 4.978,-0.327 -0.12,-0.582 -0.223,-1.077 -0.353,-1.707 1.297,0.27 2.398,0.498 3.498,0.729 0.421,0.088 0.798,0.073 1.061,-0.475 -0.293,-0.5 -0.623,-1.046 -0.933,-1.601 -0.22,-0.393 -0.233,-0.759 0.187,-0.996 1.228,0.01 1.784,1.344 3.133,1.568 -0.229,-1.471 -0.929,-2.508 -1.628,-3.562 -0.019,-0.128 -0.036,-0.255 -0.038,-0.27 0.005,0.027 0.033,0.164 0.061,0.302 m -215.977,15.833 c -0.122,0.02 -0.244,0.04 -0.365,0.06 0.009,0.009 0.023,0.028 0.03,0.025 0.114,-0.037 0.227,-0.078 0.341,-0.117 0.038,-0.31 -0.038,-0.719 0.132,-0.914 1.703,-1.967 3.603,-3.743 6.116,-4.576 3.298,-1.092 6.692,-1.779 10.192,-1.773 2.179,0.004 4.347,-0.065 6.477,-0.602 0.267,-0.067 0.633,-0.249 0.842,0.259 -0.639,1.18 -1.641,2.109 -2.59,3.069 -2.104,2.127 -3.328,4.663 -4.046,7.564 -1.025,4.142 -2.274,8.228 -3.443,12.334 -0.091,0.325 -0.298,0.617 -0.453,0.924 0.026,-2.053 0.406,-4.005 0.605,-5.974 0.207,-2.035 0.466,-4.089 0.061,-6.412 -0.504,0.566 -0.832,0.908 -1.129,1.275 -1.062,1.317 -2.107,2.649 -3.175,3.961 -0.23,0.281 -0.424,0.724 -1.045,0.417 0.859,-1.188 1.748,-2.332 2.541,-3.539 0.84,-1.277 1.716,-2.555 2.339,-3.939 0.588,-1.307 0.97,-2.733 1.257,-4.143 0.295,-1.452 0.752,-2.898 0.752,-4.606 -1.103,0.132 -2.072,0.157 -2.993,0.379 -1.486,0.358 -2.954,0.81 -4.409,1.285 -2.793,0.911 -5.237,2.46 -7.532,4.258 -0.232,0.181 -0.339,0.522 -0.505,0.785 m 16.982,-85.452 c -0.764,-0.789 -1.856,-0.865 -2.801,-1.24 -1.779,-0.707 -3.602,-1.299 -5.359,-1.921 -0.361,0.496 -0.127,0.748 0.134,0.924 1.66,1.129 3.332,2.241 5.001,3.356 0.726,0.484 1.455,0.963 2.43,1.608 -1.037,0.41 -1.66,-0.077 -2.304,-0.189 -0.632,-0.109 -1.245,-0.325 -1.876,-0.437 -0.71,-0.126 -1.43,-0.213 -2.149,-0.27 -0.638,-0.052 -1.284,-0.02 -1.924,-0.06 -0.699,-0.044 -1.394,-0.128 -2.618,-0.244 0.624,0.49 0.813,0.686 1.041,0.811 2.754,1.514 5.627,2.745 8.639,3.659 0.588,0.179 1.303,0.304 1.33,1.161 0.074,0.015 0.156,0.059 0.217,0.04 0.051,-0.016 0.077,-0.108 0.113,-0.167 -0.099,0.057 -0.199,0.114 -0.299,0.171 -0.437,-0.148 -0.872,-0.419 -1.31,-0.424 -2.799,-0.028 -5.554,-0.414 -8.301,-0.903 -0.307,-0.055 -0.631,-0.021 -0.946,-0.029 l 0.022,-0.074 c 0.139,0.254 0.213,0.634 0.425,0.74 2.156,1.078 4.23,2.337 6.549,3.072 0.604,0.192 1.181,0.465 1.874,0.744 -1.205,0.381 -1.204,0.376 -2.972,0.167 -1.038,-0.122 -2.078,-0.23 -3.118,-0.339 -1.035,-0.109 -2.071,-0.212 -3.105,-0.317 -0.311,0.506 0.075,0.772 0.349,1.019 0.922,0.832 2.063,1.231 3.234,1.563 1.161,0.33 2.322,0.659 3.473,1.022 0.269,0.084 0.495,0.306 0.803,0.505 -0.684,0.584 -1.369,0.349 -1.958,0.301 -2.723,-0.219 -5.439,-0.519 -8.156,-0.811 -0.219,-0.023 -0.421,-0.201 -0.632,-0.306 l 0.04,0.047 c 0.154,0.244 0.262,0.644 0.469,0.705 1.938,0.567 3.781,1.345 5.595,2.229 0.783,0.381 1.692,0.501 2.541,0.748 0.443,0.129 0.88,0.276 1.837,0.579 -2.201,0.519 -3.868,0.082 -5.521,0.115 -1.572,0.031 -3.149,-0.196 -5.258,-0.1 2.349,1.077 4.34,1.425 6.264,1.973 1.897,0.541 3.962,0.432 5.876,1.368 -0.634,0.598 -1.268,0.517 -1.885,0.521 -2.254,0.014 -4.507,0.025 -6.759,0.064 -0.54,0.009 -1.078,0.122 -1.988,0.232 1.949,1.188 3.838,1.205 5.584,1.692 1.679,0.469 3.503,0.168 5.623,1.114 -3.761,0.165 -7.02,0.307 -10.278,0.45 -0.018,0.106 -0.036,0.212 -0.055,0.318 0.3,0.096 0.594,0.228 0.9,0.281 0.87,0.149 1.755,0.221 2.617,0.405 2.282,0.488 4.553,1.037 6.908,1.041 0.347,0 0.62,0.099 0.688,0.484 0.061,-0.059 0.11,-0.13 0.177,-0.156 0.059,-0.022 0.138,0.006 0.207,0.013 -0.119,0.03 -0.239,0.061 -0.358,0.091 -2.312,0.418 -4.629,0.603 -6.966,0.209 -0.313,-0.052 -0.641,-0.051 -0.958,-0.03 -0.146,0.009 -0.285,0.127 -0.427,0.196 0.745,0.869 0.786,0.949 1.543,1.099 1.812,0.362 3.633,0.675 5.449,1.012 0.616,0.115 1.231,0.243 1.985,0.393 -1.142,0.646 -1.142,0.643 -1.732,0.688 -2.649,0.2 -5.299,0.397 -7.948,0.608 -0.309,0.024 -0.611,0.12 -0.917,0.43 3.713,0.381 7.427,0.763 11.639,1.195 -2.346,1.173 -4.561,0.996 -6.492,1.707 0.064,0.556 0.388,0.54 0.711,0.548 2.412,0.053 4.824,0.131 7.168,0.671 0.153,0.55 -0.227,0.581 -0.525,0.617 -1.988,0.238 -3.978,0.458 -6.065,0.695 1.235,0.664 1.853,0.791 3.595,0.763 1.256,-0.02 2.53,-0.33 3.736,0.104 0.075,1.128 -1.345,0.58 -1.371,1.656 0.915,0.077 1.838,0.138 2.758,0.235 0.865,0.093 1.727,0.223 2.605,0.34 -0.34,0.858 -0.521,1.13 -0.937,1.17 -0.88,0.084 -1.764,0.14 -2.648,0.162 -6.047,0.146 -11.366,-1.991 -16.288,-5.288 -1.403,-0.94 -2.734,-2.001 -4.022,-3.095 -5.194,-4.413 -7.243,-10.161 -6.708,-16.814 0.317,-3.931 1.087,-7.815 2.283,-11.6 1.288,-4.072 2.509,-8.165 3.762,-12.248 0.76,-2.476 1.8,-4.827 3.09,-7.076 1.895,-3.307 4.468,-5.902 7.913,-7.559 1.522,-0.732 3.084,-1.406 4.68,-1.957 5.431,-1.873 11.006,-3.111 16.741,-3.607 1.363,-0.118 2.727,-0.287 4.074,-0.529 5.167,-0.93 9.572,-3.292 13.103,-7.194 1.458,-1.612 2.884,-3.264 4.203,-4.989 3.362,-4.403 7.285,-8.159 12.057,-11.017 4.912,-2.941 9.831,-5.853 15.209,-7.894 4.08,-1.548 8.229,-2.842 12.57,-3.428 3.289,-0.445 6.587,-0.505 9.866,0.038 4.29,0.711 8.573,1.465 12.848,2.262 1.8,0.336 3.479,0.23 5.188,-0.505 2.836,-1.221 5.466,-2.792 7.891,-4.657 4.633,-3.564 9.767,-6.231 15.009,-8.727 2.836,-1.351 5.678,-2.691 8.542,-3.98 2.332,-1.049 4.211,-2.613 5.838,-4.572 2.762,-3.325 5.021,-6.91 6.193,-11.109 1.027,-3.684 1.519,-7.437 0.922,-11.232 -0.56,-3.549 -2.356,-6.492 -5.03,-8.871 -0.882,-0.786 -1.727,-1.67 -3.003,-2.112 -1.107,0.876 -1.674,2.147 -2.479,3.225 -0.27,0.363 -0.311,0.95 -0.933,0.972 0.025,0.173 0.048,0.346 0.071,0.519 -0.067,-0.007 -0.132,-0.014 -0.199,-0.022 0.065,-0.157 0.128,-0.315 0.193,-0.472 0.056,-0.714 0.134,-1.427 0.166,-2.141 0.048,-1.122 0.127,-2.249 0.057,-3.365 -0.024,-0.386 -0.455,-0.746 -0.801,-1.274 -0.368,0.463 -0.667,0.731 -0.83,1.065 -0.989,2.023 -1.946,4.061 -2.914,6.094 -0.199,0.419 -0.252,0.956 -0.846,1.056 0.174,0.893 0.131,0.98 -0.735,1.508 0.034,0.111 0.062,0.225 0.09,0.338 0.048,-0.042 0.097,-0.084 0.146,-0.126 -0.098,-0.051 -0.195,-0.101 -0.291,-0.151 0.28,-0.514 0.561,-1.029 0.842,-1.544 0.021,-0.797 0.067,-1.595 0.055,-2.393 -0.022,-1.687 -0.061,-3.374 -0.129,-5.06 -0.01,-0.273 -0.2,-0.54 -0.41,-1.069 -0.309,0.454 -0.527,0.672 -0.626,0.935 -1.189,3.165 -2.356,6.337 -3.54,9.505 -0.138,0.369 -0.337,0.713 -0.509,1.07 -0.076,0.107 0.199,0.448 -0.22,0.327 0.1,-0.095 0.2,-0.19 0.299,-0.285 -0.042,-0.468 -0.158,-0.944 -0.115,-1.404 0.274,-2.886 0.168,-5.773 0.032,-8.66 -0.009,-0.21 -0.145,-0.413 -0.309,-0.849 -0.271,0.617 -0.491,1.031 -0.637,1.469 -0.885,2.668 -1.753,5.341 -2.626,8.012 -0.152,0.467 -0.295,0.939 -0.923,0.895 0.121,0.114 0.264,0.206 0.324,0.336 0.032,0.072 -0.076,0.208 -0.12,0.315 -0.021,-0.071 -0.044,-0.142 -0.064,-0.214 -0.039,-0.141 -0.077,-0.284 -0.116,-0.426 0.181,-0.853 0.455,-1.699 0.526,-2.562 0.187,-2.238 0.29,-4.484 0.41,-6.728 0.012,-0.215 -0.086,-0.437 -0.205,-0.988 -2.305,4.402 -3.447,8.922 -5.159,13.241 -0.099,-2.332 0.683,-4.563 0.829,-6.869 0.147,-2.281 0.795,-4.52 0.508,-6.885 -0.235,0.484 -0.5,0.956 -0.702,1.454 -1.939,4.758 -3.867,9.521 -5.792,14.285 -0.163,0.404 -0.369,0.703 -0.846,0.667 0.115,0.093 0.257,0.167 0.308,0.281 0.029,0.066 -0.088,0.197 -0.14,0.3 -0.038,-0.048 -0.104,-0.092 -0.109,-0.143 -0.015,-0.14 -0.003,-0.282 -0.001,-0.423 1.132,-5.61 1.841,-11.277 2.286,-16.979 0.016,-0.209 -0.138,-0.431 -0.298,-0.896 -0.226,0.568 -0.382,0.911 -0.502,1.268 -1.663,4.962 -3.319,9.926 -4.984,14.888 -0.154,0.456 -0.314,0.92 -0.558,1.331 -0.084,0.141 -0.432,0.126 -0.645,0.185 0.135,0.084 0.296,0.142 0.363,0.255 0.039,0.066 -0.074,0.221 -0.119,0.336 -0.044,-0.048 -0.112,-0.09 -0.125,-0.145 -0.036,-0.144 -0.048,-0.294 -0.071,-0.442 0.115,-1.516 0.351,-3.034 0.319,-4.546 -0.082,-3.776 -0.024,-7.543 0.239,-11.31 0.059,-0.848 0.227,-1.735 -0.128,-2.675 -0.181,0.241 -0.322,0.348 -0.352,0.481 -1.225,5.566 -2.435,11.135 -3.666,16.699 -0.127,0.575 0.033,1.325 -0.77,1.581 0.017,0.15 0.025,0.295 0.034,0.44 10e-4,-0.134 0.003,-0.269 0.005,-0.402 -0.13,-1.426 -0.184,-2.865 -0.417,-4.272 -0.14,-0.838 -0.561,-1.629 -1.027,-2.915 -0.309,1.221 -0.463,1.958 -0.688,2.673 -0.156,0.499 -0.056,1.152 -0.718,1.396 0.067,0.447 0.131,0.891 0.196,1.336 -0.084,0.365 -0.168,0.728 -0.252,1.092 -0.066,-0.003 -0.13,-0.005 -0.196,-0.008 0.068,0.078 0.134,0.156 0.202,0.234 -10e-4,-0.069 -0.002,-0.137 -0.011,-0.215 -0.225,-0.452 -0.068,-0.796 0.265,-1.098 -0.298,-0.418 -0.542,-0.833 -0.145,-1.313 -0.338,-1.222 0.105,-2.403 0.302,-3.566 0.201,-1.197 0.319,-2.375 0.339,-3.584 0.023,-1.445 0.17,-2.887 0.229,-4.333 0.026,-0.638 -0.017,-1.28 -0.063,-1.919 -0.009,-0.122 -0.176,-0.233 -0.392,-0.501 -0.267,0.662 -0.351,1.282 -0.477,1.879 -0.895,4.259 -2.157,8.405 -3.638,12.497 -0.984,2.717 -1.726,5.522 -2.581,8.286 -0.07,0.225 -0.176,0.439 -0.418,1.033 -0.092,-0.706 -0.191,-1.049 -0.172,-1.386 0.291,-5.137 0.606,-10.271 0.892,-15.408 0.075,-1.346 0.066,-2.696 0.104,-4.423 -0.881,0.786 -0.718,1.534 -0.874,2.153 -0.157,0.623 -0.282,1.255 -0.419,1.884 -0.153,0.707 -0.29,1.418 -0.459,2.121 -0.169,0.704 -0.361,1.402 -0.556,2.1 -0.172,0.619 -0.358,1.235 -0.542,1.852 -0.207,0.694 -0.423,1.384 -0.626,2.079 -0.178,0.618 -0.337,1.242 -0.518,1.859 -0.203,0.694 -0.43,1.383 -0.631,2.078 -0.201,0.695 -0.383,1.395 -0.574,2.094 -0.169,0.621 -0.329,1.244 -0.514,1.861 -0.196,0.659 -0.416,1.312 -0.737,2.314 -0.141,-0.597 -0.251,-0.821 -0.236,-1.037 0.23,-3.373 0.249,-6.745 0.094,-10.124 -0.081,-1.764 0.037,-3.538 -0.013,-5.304 -0.024,-0.786 -0.242,-1.567 -0.371,-2.349 l 0.074,0.036 c -0.158,0.604 -0.342,1.203 -0.467,1.814 -0.469,2.287 -0.861,4.59 -1.386,6.864 -1.016,4.396 -2.101,8.777 -3.162,13.163 -0.11,0.455 -0.247,0.904 -0.516,1.345 -0.982,-7.362 -0.38,-14.804 -1.4,-22.161 -1.591,10.004 -3.972,19.857 -5.149,29.99 -0.088,-0.385 -0.228,-0.766 -0.257,-1.155 -0.624,-8.113 -1.233,-16.225 -1.856,-24.337 -0.036,-0.464 -0.164,-0.922 -0.397,-1.391 -0.708,1.963 -0.926,4.015 -1.321,6.021 -0.403,2.053 -0.687,4.132 -0.983,6.206 -0.284,1.993 -0.49,3.998 -0.779,5.99 -0.3,2.064 -0.657,4.119 -1.044,6.516 -1.447,-2.339 -3.325,-3.858 -5.017,-5.555 -0.81,-0.813 -1.304,-1.819 -1.749,-2.869 -0.428,-1.012 -0.656,-2.138 -1.601,-3.179 -0.386,2.187 0.516,3.954 0.926,5.774 0.405,1.802 1.001,3.561 1.582,5.577 -1.082,-0.736 -1.393,-1.819 -2.047,-2.614 -0.663,-0.807 -1.265,-1.668 -1.854,-2.532 -0.634,-0.932 -1.203,-1.907 -1.834,-2.841 -0.567,-0.841 -0.91,-1.861 -2.088,-2.66 0.36,2.157 0.942,3.961 1.346,5.799 0.395,1.799 0.859,3.582 1.371,5.698 -0.422,-0.581 -0.734,-0.894 -0.91,-1.272 -0.685,-1.475 -1.563,-2.813 -2.636,-4.031 -1.925,-2.182 -3.705,-4.464 -4.887,-7.157 -0.109,-0.25 -0.392,-0.423 -0.727,-0.551 1.168,4.516 3.075,8.753 4.324,13.24 -2.185,-2.364 -4.044,-4.964 -6.085,-7.414 -2.004,-2.403 -4.034,-4.783 -6.121,-7.252 0.153,1.583 0.855,3.299 3.125,7.68 1.254,2.42 2.521,4.833 3.682,7.322 -1.327,-0.986 -2.085,-2.446 -3.121,-3.666 -1.148,-1.349 -2.281,-2.713 -3.457,-4.038 -1.124,-1.264 -2.274,-2.507 -3.452,-3.721 -1.159,-1.195 -2.089,-2.614 -3.831,-4.075 0.867,2.498 1.969,4.247 2.805,6.107 0.824,1.833 1.804,3.601 2.794,5.352 1.02,1.807 2.138,3.559 3.375,5.603 -1.157,-0.502 -1.619,-1.258 -2.182,-1.895 -3.09,-3.504 -6.089,-7.089 -9.43,-10.37 -1.143,-1.121 -2.054,-2.477 -3.082,-3.716 -0.241,-0.289 -0.526,-0.541 -1.032,-1.055 -0.013,1.082 0.327,1.683 0.651,2.276 2.08,3.821 4.171,7.635 6.256,11.452 0.224,0.413 0.434,0.833 0.542,1.333 -5.022,-4.781 -9.688,-9.883 -14.44,-14.93 -0.584,0.453 -0.122,0.888 0.027,1.263 2.064,5.204 4.897,9.966 8.306,14.395 0.343,0.446 0.694,0.885 1.029,1.337 0.028,0.037 -0.043,0.147 -0.109,0.349 -0.518,-0.439 -1.032,-0.812 -1.47,-1.259 -1.578,-1.613 -3.124,-3.256 -4.693,-4.876 -2.689,-2.779 -5.384,-5.551 -8.083,-8.32 -0.492,-0.504 -1.016,-0.978 -1.666,-1.602 0.205,1.743 0.68,2.787 4.301,8.906 1.629,2.752 3.403,5.417 5.036,8.191 -5.336,-4.834 -10.121,-10.222 -15.598,-15.491 0.552,2.263 1.752,3.776 2.582,5.448 0.822,1.654 1.824,3.225 2.829,4.78 1.035,1.601 2.166,3.139 3.023,4.892 -3.503,-3.602 -7.005,-7.205 -10.485,-10.784 -0.725,0.392 -0.446,0.892 -0.306,1.311 1.313,3.942 3.264,7.519 6.134,10.562 0.025,0.128 0.052,0.255 0.079,0.382 -0.037,-0.129 -0.075,-0.259 -0.112,-0.388 -0.458,0.226 -0.758,-0.079 -1.049,-0.336 -3.298,-2.923 -6.588,-5.855 -9.889,-8.773 -0.162,-0.144 -0.408,-0.19 -0.587,-0.269 -0.504,0.243 -0.259,0.584 -0.147,0.825 1.033,2.239 1.858,4.6 3.665,6.401 0.001,0.155 0.013,0.298 0.027,0.44 0.007,0.068 0.017,0.135 0.026,0.203 -0.075,-0.092 -0.218,-0.189 -0.212,-0.275 0.011,-0.137 0.12,-0.268 0.188,-0.401 -0.203,0.125 -0.407,0.249 -0.649,0.397 -0.33,-0.228 -0.646,-0.47 -0.985,-0.676 -1.533,-0.933 -3.129,-1.153 -4.852,-0.524 -2.735,0.999 -4.736,2.659 -5.527,5.591 -0.719,2.662 -1.252,5.323 -0.884,8.105 0.519,3.931 2.422,7.142 5.172,9.873 2.93,2.912 6.222,5.324 9.917,7.233 7.944,4.102 16.281,6.944 25.125,8.29 0.133,0.019 0.248,0.158 0.404,0.264 -0.791,0.549 -1.673,0.443 -2.54,0.438 -3.908,-0.024 -7.687,-0.806 -11.366,-2.055 -5.034,-1.71 -10.067,-3.422 -14.882,-5.713 -1.606,-0.765 -3.205,-1.518 -4.564,-2.692 -0.183,-0.157 -0.392,-0.284 -0.581,-0.432 -1.003,-0.787 -2.078,-1.194 -3.373,-0.788 -0.362,0.115 -0.78,0.05 -1.268,0.073 -0.559,-0.994 -1.097,-1.952 -1.713,-3.046 -0.537,0.403 -0.966,0.723 -1.394,1.046 -1.345,1.016 -2.659,2.078 -4.04,3.043 -4.685,3.275 -9.705,6.042 -14.274,9.504 -1.789,1.356 -3.772,2.467 -5.719,3.6 -3.382,1.966 -5.893,4.708 -7.604,8.208 -0.708,1.447 -1.445,2.881 -2.14,4.334 -0.843,1.765 -1.854,3.383 -3.452,4.588 -0.504,0.38 -0.929,0.886 -1.318,1.39 -0.457,0.59 -0.359,1.195 0.151,1.724 0.997,-0.614 1.943,-1.306 2.979,-1.813 2.397,-1.174 4.167,-2.95 5.562,-5.202 1.357,-2.189 2.856,-4.288 4.271,-6.442 0.809,-1.231 1.848,-2.228 3.026,-3.092 2.727,-1.997 5.415,-4.038 8.354,-5.741 2.504,-1.452 4.851,-3.171 7.336,-4.659 1.722,-1.032 3.548,-1.897 5.351,-2.788 0.572,-0.282 1.209,-0.529 1.834,-0.582 2.16,-0.182 4.327,-0.281 6.492,-0.382 0.294,-0.014 0.596,0.148 0.833,0.211 0.263,0.622 -0.093,0.844 -0.46,0.985 -0.292,0.113 -0.629,0.113 -0.948,0.161 -1.746,0.266 -1.746,0.266 -2.891,1.62 -2.076,-1.285 -2.076,-1.285 -4.074,-0.314 -0.535,1.024 0.256,2.014 0.127,3.124 -1.106,-0.179 -1.324,-1.353 -2.127,-1.803 -1.433,0.285 -1.667,0.541 -1.317,1.586 0.203,0.608 0.518,1.177 0.764,1.772 0.173,0.415 0.314,0.843 0.614,1.657 -1.615,-1.234 -2.263,-3.403 -4.65,-2.693 0.535,1.484 1.041,2.888 1.637,4.546 -1.644,-0.763 -2.284,-2.273 -3.461,-3.095 -0.484,0.273 -0.71,0.586 -0.408,1.013 0.596,0.839 0.676,1.77 0.627,2.784 -0.649,0.201 -0.867,-0.308 -1.114,-0.632 -0.381,-0.5 -0.677,-1.065 -0.984,-1.562 -0.853,0.04 -0.828,0.517 -0.654,0.999 0.569,1.587 1.169,3.164 1.75,4.722 -0.575,0.383 -0.832,0.044 -1.085,-0.235 -0.756,-0.836 -1.484,-1.696 -2.255,-2.517 -0.258,-0.273 -0.61,-0.457 -1.02,-0.755 -0.336,0.491 -0.589,0.889 -0.87,1.266 -0.553,0.741 -0.489,1.493 -0.087,2.267 0.364,0.702 0.967,1.315 0.825,2.203 0.342,-0.189 0.52,-0.123 0.473,0.298 -0.144,-0.125 -0.288,-0.25 -0.431,-0.374 -0.529,-0.485 -1.038,-0.994 -1.595,-1.444 -0.284,-0.229 -0.652,-0.353 -1.051,-0.559 -0.036,1.642 -0.024,1.692 1.264,4.094 0.643,1.199 1.303,2.389 2.174,3.983 -1.5,-0.962 -2.329,-2.008 -3.304,-2.882 -0.987,-0.885 -1.897,-1.869 -3.425,-2.944 0.637,2.583 2.002,4.194 2.872,6.033 0.855,1.807 1.884,3.534 2.661,5.459 -0.314,-0.264 -0.675,-0.488 -0.932,-0.798 -0.616,-0.744 -1.182,-1.529 -1.771,-2.296 -1.476,-1.925 -3.204,-3.601 -5.1,-5.105 -0.033,-0.026 -0.134,0.035 -0.202,0.054 -0.061,0.136 -0.206,0.302 -0.169,0.399 0.771,2.025 1.501,4.07 2.377,6.05 0.45,1.017 1.135,1.938 1.778,2.859 0.451,0.647 1.009,1.22 1.679,2.017 -0.808,0.051 -1.183,-0.4 -1.595,-0.654 -0.546,-0.336 -1.017,-0.792 -1.548,-1.156 -0.464,-0.319 -0.984,-0.556 -1.447,-0.876 -0.462,-0.32 -0.903,-0.679 -1.318,-1.059 -0.476,-0.433 -0.908,-0.915 -1.366,-1.368 -0.383,-0.38 -0.643,-0.94 -1.312,-0.928 0.33,2.043 1.436,3.62 6.261,8.92 -0.448,0.449 -0.704,-0.039 -0.985,-0.217 -1.357,-0.856 -2.613,-1.858 -4.15,-2.44 -0.729,-0.275 -1.323,-0.9 -1.984,-1.359 -0.447,-0.31 -0.903,-0.608 -1.747,-1.173 0.699,1.909 1.873,2.885 2.878,3.965 0.983,1.057 2.035,2.047 3.04,3.049 -0.16,0.493 -0.512,0.408 -0.77,0.273 -0.923,-0.482 -1.836,-0.988 -2.727,-1.528 -0.825,-0.501 -1.611,-1.068 -2.429,-1.583 -0.192,-0.12 -0.44,-0.151 -0.656,-0.221 -0.056,0.109 -0.11,0.171 -0.12,0.24 -0.009,0.073 0,0.169 0.041,0.227 0.138,0.195 0.273,0.399 0.446,0.56 2.117,1.974 4.24,3.941 6.373,5.92 -0.828,0.076 -0.824,0.07 -2.054,-0.548 -0.791,-0.398 -1.629,-0.701 -2.415,-1.107 -0.715,-0.368 -1.386,-0.821 -2.081,-1.23 -0.682,-0.4 -1.368,-0.79 -2.461,-1.42 0.233,0.688 0.243,1.01 0.408,1.156 1.752,1.544 3.525,3.063 5.3,4.582 0.588,0.503 1.195,0.985 1.805,1.486 -0.174,0.161 -0.247,0.256 -0.27,0.246 -1.746,-0.802 -3.575,-1.386 -5.361,-2.074 -1.32,-0.508 -2.432,-1.552 -3.641,-2.351 -0.302,-0.2 -0.621,-0.373 -1.12,-0.324 0.238,0.283 0.439,0.612 0.721,0.844 1.674,1.38 3.366,2.742 5.057,4.102 0.682,0.549 1.509,0.983 1.523,2.025 0.408,-0.263 0.84,-0.527 1.312,-0.265 0.356,0.197 0.939,0.204 0.919,0.839 -0.878,0.24 -1.501,-0.316 -2.193,-0.633 -1.457,0.507 -2.852,0.317 -4.22,-0.338 -0.8,-0.383 -1.612,-0.74 -2.433,-1.075 -0.259,-0.106 -0.564,-0.102 -1.141,-0.196 0.629,1.157 1.542,1.496 2.312,1.984 0.818,0.518 1.637,1.039 2.495,1.481 0.786,0.404 1.634,0.683 2.437,1.056 0.845,0.392 1.837,0.518 2.675,1.388 -1.624,0.486 -3.038,0.067 -4.443,-0.078 -1.407,-0.144 -2.773,-0.696 -4.471,-0.559 0.698,1.006 1.644,0.993 2.4,1.294 0.821,0.327 1.689,0.536 2.53,0.815 0.841,0.279 1.695,0.535 2.507,0.884 0.781,0.335 1.758,0.206 2.514,1.037 -0.675,0.782 -1.536,0.904 -2.385,0.966 -0.881,0.064 -1.771,-0.009 -2.652,0.048 -0.624,0.041 -1.241,0.2 -1.85,0.606 0.6,0.062 1.199,0.136 1.801,0.182 1.036,0.081 2.068,0.06 3.055,0.556 0.463,0.233 1.09,0.152 1.645,0.188 0.543,0.036 1.089,0.04 1.882,0.066 -1.107,1.031 -2.028,1.89 -3.104,2.892 1.273,0.534 2.241,0.039 3.222,-0.084 1.008,-0.126 2.037,-0.394 3.027,0.148 -0.074,0.792 -0.609,1.077 -1.116,1.192 -2.197,0.499 -4.407,0.95 -6.624,1.357 -0.452,0.083 -0.978,-0.019 -1.427,-0.17 -5.501,-1.849 -9.846,-5.171 -12.474,-10.4 -1.673,-3.33 -2.573,-6.953 -2.972,-10.668 -0.258,-2.403 -0.375,-4.82 -0.611,-7.225 -0.134,-1.358 -0.356,-2.711 -0.596,-4.056 -0.06,-0.34 -0.344,-0.639 -0.707,-1.275 -1.089,4.849 -2.232,9.288 -2.015,13.927 0.226,4.826 1.516,9.376 3.711,13.664 1.433,2.8 2.984,5.538 5.079,7.913 0.743,0.843 1.546,1.641 2.389,2.384 1.557,1.373 3.359,1.841 5.398,1.289 0.773,-0.21 1.561,-0.366 2.343,-0.546 0.209,0.582 -0.179,0.795 -0.503,0.95 -3.486,1.669 -5.669,4.466 -6.82,8.067 -0.882,2.761 -1.655,5.561 -2.338,8.378 -0.645,2.66 -1.152,5.358 -1.641,8.053 -0.454,2.505 -1.792,4.288 -4.113,5.291 -1.694,0.732 -3.429,1.37 -5.2,2.071 -0.18,0.42 0.137,0.645 0.499,0.863 0.552,0.333 1.126,0.64 1.636,1.029 2.436,1.862 5.257,2.788 8.213,3.335 2.613,0.485 5.247,0.856 7.872,1.28 1.113,0.18 2.222,0.391 3.337,0.549 3.242,0.459 5.955,2.027 8.289,4.197 2.523,2.346 4.651,5.102 7.6,7.237 -0.96,1.312 -1.886,2.425 -2.637,3.645 -0.758,1.23 -1.372,2.551 -1.992,3.859 -0.619,1.302 -0.833,2.729 -1.455,4.482 0.819,-0.446 1.248,-0.679 1.729,-0.941 0.027,0.234 0.1,0.395 0.048,0.48 -1.044,1.707 -1.376,3.582 -1.401,5.551 -0.011,1.023 -0.139,2.045 -0.234,3.333 0.612,-0.53 1.007,-0.869 1.588,-1.371 0.041,0.528 0.127,0.879 0.086,1.214 -0.216,1.756 -0.252,3.497 0.143,5.263 0.432,-0.035 0.728,-0.06 1.101,-0.091 0.101,0.84 0.149,1.698 0.317,2.532 0.159,0.787 0.42,1.556 0.674,2.321 0.275,0.829 0.592,1.643 0.984,2.719 0.412,-0.491 0.666,-0.793 0.922,-1.097 0.13,0.082 0.35,0.141 0.375,0.246 0.317,1.325 0.607,2.656 0.908,4.007 0.996,-0.021 0.663,-1.277 1.57,-1.415 0.161,0.927 0.11,1.968 0.527,2.766 0.952,1.822 0.712,3.435 -0.087,5.236 -0.543,1.221 -0.614,2.657 -0.854,4.003 -0.051,0.283 0.076,0.597 0.144,1.041 2.353,-0.678 4.589,-1.338 6.835,-1.963 0.76,-0.212 1.5,-0.5 2.354,-0.182 0.37,0.138 0.921,-0.091 1.352,-0.252 2.252,-0.845 4.491,-1.722 6.758,-2.597 0.394,0.815 -0.644,1.096 -0.532,1.757 0.12,-0.01 0.271,0.016 0.378,-0.041 0.999,-0.517 1.964,-1.107 2.99,-1.56 1.523,-0.673 2.762,-1.636 3.619,-3.074 0.826,-1.385 1.661,-2.764 2.486,-4.149 0.232,-0.39 0.449,-0.789 0.798,-1.127 -0.76,2.412 -2.207,4.576 -2.563,7.356 1.131,-0.236 1.794,-0.904 2.525,-1.426 0.718,-0.515 1.452,-1.024 2.098,-1.622 0.694,-0.641 1.293,-1.382 2.101,-2.263 0.215,0.744 0.354,1.227 0.493,1.711 0.224,-0.065 0.407,-0.06 0.486,-0.149 1.66,-1.863 3.308,-3.737 4.959,-5.608 0.555,0.135 1.014,0.247 1.462,0.356 3.85,-2.459 3.85,-2.459 5.529,-7.186 0.515,-0.114 0.426,0.323 0.49,0.573 0.61,2.406 1.939,4.41 3.521,6.262 0.784,0.918 1.649,1.768 2.456,2.667 0.485,0.539 0.936,1.109 1.39,1.673 1.041,1.293 1.823,2.665 1.144,4.498 8.507,-1.059 16.849,-1.234 25.185,-0.038 2.392,0.342 4.767,0.797 7.152,1.186 1.379,0.225 2.729,0.088 4.049,-0.377 1.835,-0.648 2.95,-1.892 3.234,-3.841 0.351,-2.42 -0.143,-4.646 -1.546,-6.655 -1.164,-1.666 -2.642,-3.03 -4.167,-4.355 -0.971,-0.845 -1.925,-1.718 -2.799,-2.66 -1.277,-1.377 -2.086,-3.02 -2.694,-4.808 -1.135,-3.339 -1.475,-6.733 -1.236,-10.239 0.325,-4.756 0.873,-9.457 2.189,-14.062 1.187,-4.157 3.009,-7.99 5.45,-11.534 1.47,-2.135 3.225,-4.016 5.36,-5.518 0.172,-0.121 0.288,-0.322 0.54,-0.611 -0.349,-0.052 -0.586,-0.165 -0.747,-0.098 -0.818,0.338 -1.681,0.629 -2.409,1.113 -1.03,0.684 -2.153,1.086 -3.313,1.429 -4.731,1.399 -9.184,3.504 -13.722,5.394 -1.355,0.564 -2.501,1.456 -3.499,2.533 -0.425,0.458 -0.843,0.92 -1.459,1.593 -0.075,-1.757 0.652,-2.863 1.613,-3.798 1.441,-1.402 2.885,-2.825 4.472,-4.053 4.463,-3.455 9.386,-5.888 15.063,-6.709 2.796,-0.404 5.571,-0.862 8.405,-0.812 2.318,0.042 4.475,-0.52 6.419,-1.804 1.814,-1.198 3.66,-2.355 5.408,-3.642 3.048,-2.244 5.989,-4.633 9.055,-6.851 2.303,-1.666 4.377,-3.545 6.209,-5.709 1.926,-2.276 3.851,-4.553 5.819,-6.794 0.328,-0.374 0.583,-1.035 1.487,-0.785 -0.078,0.427 -0.061,0.91 -0.254,1.285 -0.847,1.644 -1.606,3.362 -2.668,4.862 -3.32,4.694 -7.212,8.869 -11.793,12.381 -2.302,1.764 -4.561,3.582 -6.829,5.389 -0.356,0.284 -0.657,0.637 -1.227,1.199 2.05,-0.19 3.676,0.208 5.296,0.62 2.187,0.556 4.368,1.135 6.542,1.733 3.528,0.971 6.758,2.598 9.901,4.44 2.433,1.427 4.902,2.795 7.395,4.114 2.596,1.373 5.376,2.097 8.325,2.287 3.666,0.236 7.025,-0.787 10.26,-2.31 3.134,-1.475 6.183,-3.129 9.313,-4.614 3.348,-1.588 6.744,-3.079 10.125,-4.599 2.795,-1.256 5.69,-1.574 8.738,-1.149 3.239,0.453 6.31,1.281 9.091,3.049 0.611,0.388 1.251,0.739 1.899,1.062 2.347,1.172 4.77,1.968 7.45,1.462 0.222,-0.041 0.468,0.043 0.89,0.089 -0.331,0.636 -0.567,1.214 -0.908,1.723 -2.036,3.048 -3.413,6.342 -4.306,9.919 -0.739,2.959 -1.961,5.797 -2.973,8.687 -0.373,1.065 -0.837,2.105 -1.123,3.192 -0.495,1.876 -1.601,3.314 -2.986,4.592 -1.007,0.929 -1.989,1.885 -3.007,2.801 -1.274,1.148 -2.248,2.503 -3.063,4.01 -3.651,6.745 -7.787,13.185 -12.36,19.339 -2.929,3.941 -6.52,7.105 -11.035,9.181 -3.35,1.54 -6.876,2.261 -10.515,2.547 -4.275,0.335 -8.532,0.171 -12.777,-0.45 -3.459,-0.507 -6.707,-1.587 -9.864,-3.108 -4.201,-2.022 -7.841,-4.738 -11.108,-8.031 -2.202,-2.219 -3.879,-4.721 -4.759,-7.737 -0.174,-0.595 -0.423,-1.168 -0.664,-1.828 -0.285,0.159 -0.535,0.223 -0.671,0.385 -2.399,2.862 -5.171,5.283 -8.35,7.258 -1.503,0.934 -2.916,2.012 -4.376,3.014 -0.582,0.399 -1.182,0.769 -1.748,1.134 -0.59,-0.469 -0.284,-0.962 -0.231,-1.393 0.245,-2.009 -0.306,-3.838 -1.233,-5.574 -0.457,-0.858 -1.099,-1.554 -1.904,-2.146 -2.16,-1.59 -4.401,-2.943 -7.123,-3.185 -0.289,0.396 -0.128,0.642 0.135,0.867 1.282,1.104 2.516,2.269 3.858,3.296 1.916,1.467 3.001,3.302 3.074,5.748 0.04,1.367 0.201,2.732 0.339,4.094 0.048,0.462 0.194,0.913 0.303,1.404 4.729,-0.406 9.055,-1.809 13.511,-4.186 -0.253,0.639 -0.311,0.905 -0.45,1.117 -3.017,4.613 -7.205,7.744 -12.295,9.753 -3.824,1.51 -7.614,3.103 -11.45,4.575 -1.878,0.72 -3.814,1.305 -5.754,1.838 -0.999,0.275 -2.065,0.411 -3.101,0.421 -2.567,0.027 -4.851,-1.702 -5.622,-4.135 -0.142,-0.449 -0.263,-0.905 -0.387,-1.335 -0.704,-0.092 -0.716,0.339 -0.662,0.713 0.402,2.776 2.02,4.685 4.402,6 1.891,1.044 3.958,1.291 6.085,1.217 2.851,-0.099 5.597,-0.799 8.28,-1.651 4.773,-1.516 9.587,-2.815 14.541,-3.581 0.791,-0.122 1.551,-0.436 2.333,-0.626 0.613,-0.148 1.24,-0.241 1.77,-0.342 0.943,0.66 0.765,1.697 1.229,2.448 0.606,0.064 0.451,-0.48 0.595,-0.773 0.207,-0.42 0.383,-0.857 0.588,-1.279 0.022,-0.046 0.14,-0.045 0.325,-0.099 0.73,0.363 0.585,1.412 1.252,1.89 0.931,0.241 1.006,-0.895 1.682,-1.077 0.113,0.091 0.292,0.162 0.328,0.277 0.218,0.691 0.368,1.403 0.607,2.085 0.277,0.796 0.795,0.809 1.403,0.063 0.146,-0.177 0.269,-0.373 0.481,-0.673 0.655,0.904 0.712,2.238 2.214,2.449 0.246,-0.422 0.546,-0.934 0.838,-1.435 0.2,0.058 0.416,0.053 0.483,0.151 0.493,0.724 1.112,1.369 1.191,2.329 0.051,0.619 0.6,0.661 1.172,0.669 0.182,-0.499 0.37,-1.016 0.603,-1.655 0.513,0.612 0.963,1.15 1.386,1.656 0.608,-0.222 0.88,-1.076 1.648,-0.526 0.062,0.045 0.511,-0.45 0.842,-0.75 0.4,0.364 0.791,0.72 1.196,1.088 0.792,-0.512 -0.028,-1.279 0.435,-1.783 0.659,0.119 1.328,0.241 1.949,0.353 0.615,-0.922 0.157,-1.789 0.136,-2.776 0.738,0.682 1.37,1.267 2.012,1.86 0.949,-1.186 -0.103,-2.008 -0.563,-3.131 0.811,0.415 1.354,0.691 1.89,0.965 0.135,-0.224 0.3,-0.391 0.266,-0.459 -0.35,-0.705 -0.733,-1.394 -1.112,-2.098 0.611,-0.391 0.87,0.136 1.227,0.372 0.313,0.207 0.631,0.406 1.081,0.696 0.448,-1.201 -0.478,-1.936 -0.667,-2.985 2.329,0.174 4.312,1.115 6.412,1.478 2.134,0.369 4.293,0.592 6.645,0.906 -0.35,0.452 -0.591,0.817 -0.884,1.135 -3.066,3.344 -6.488,6.263 -10.367,8.631 -2.995,1.83 -6.262,2.978 -9.686,3.631 -4.187,0.8 -7.987,-0.335 -11.48,-2.645 -0.873,-0.576 -1.694,-1.233 -2.525,-1.872 -2.063,-1.587 -4.303,-2.837 -6.794,-3.616 -0.294,-0.093 -0.605,-0.13 -1.202,-0.253 0.238,0.481 0.317,0.763 0.488,0.966 2.029,2.403 4.185,4.678 6.52,6.795 6.303,5.715 13.429,6.838 21.348,4.056 6.336,-2.226 11.485,-6.116 15.816,-11.147 1.356,-1.575 2.94,-3.005 3.695,-5.156 0.649,-0.025 1.279,-0.094 1.905,-0.065 3.506,0.163 6.91,-0.424 10.259,-1.381 2.171,-0.621 4.321,-1.313 6.479,-1.974 0.463,-0.141 0.917,-0.327 1.389,-0.417 2.046,-0.386 3.719,0.714 4.095,2.776 0.142,0.775 0.053,1.599 0.016,2.399 -0.026,0.561 -0.21,1.117 -0.209,1.676 0.004,1.812 1.4,2.99 3.209,2.688 2.431,-0.405 4.354,-1.708 5.747,-3.685 0.969,-1.377 1.797,-2.871 2.533,-4.388 0.985,-2.029 1.87,-4.11 2.703,-6.206 0.882,-2.218 2.393,-3.776 4.523,-4.798 2.117,-1.014 4.312,-1.794 6.573,-2.418 2.876,-0.793 5.718,-1.67 8.44,-2.939 3.514,-1.639 5.92,-4.133 6.662,-8.021 0.178,-0.937 0.185,-1.907 0.273,-2.891 1.437,-0.866 2.261,-1.076 4.617,-1.129 0.24,0.416 0.547,0.876 0.78,1.371 1.294,2.755 1.743,5.686 1.677,8.7 -0.015,0.714 -0.205,1.433 -0.381,2.133 -0.185,0.743 -0.671,1.276 -1.376,1.59 -0.367,0.164 -0.738,0.326 -1.118,0.456 -2.617,0.898 -4.991,2.257 -7.22,3.869 -6.121,4.428 -10.898,9.958 -14.162,16.83 -1.772,3.733 -3.32,7.517 -4.313,11.523 -0.272,1.093 -0.479,2.204 -0.659,3.317 -0.139,0.861 -0.191,1.736 -0.292,2.721 0.387,-0.145 0.645,-0.243 1.098,-0.412 -0.294,1.238 -0.623,2.361 -0.817,3.507 -0.186,1.108 -0.297,2.239 -0.328,3.363 -0.032,1.193 0.067,2.389 0.111,3.632 0.515,-0.148 0.861,-0.248 1.262,-0.363 0.392,2.397 0.582,4.802 1.321,7.363 0.481,-0.576 0.809,-0.968 1.253,-1.501 0.81,1.083 0.864,2.341 1.366,3.401 0.484,1.019 0.955,2.049 1.331,3.11 0.395,1.113 0.67,2.267 0.986,3.361 0.667,0.085 0.773,-0.379 0.961,-0.696 1.312,-2.219 2.612,-4.447 3.909,-6.676 2.163,-3.72 5.05,-6.878 7.814,-10.134 1.249,-1.472 2.395,-3.033 3.631,-4.517 1.161,-1.394 1.871,-2.985 2.359,-4.718 1.443,-5.132 2.409,-10.36 3.13,-15.633 0.917,-6.706 1.847,-13.408 3.184,-20.046 0.061,-0.301 0.233,-0.579 0.353,-0.868 l -0.051,0.074 c 0.112,-0.878 0.227,-1.756 0.337,-2.634 C 0.145,48.463 0.15,46.049 -0.351,43.666 -0.547,42.73 -0.921,41.824 -1.284,40.934 -1.586,40.197 -1.99,39.501 -2.433,38.621 0.3,37.892 2.973,37.43 5.626,36.922 c 2.595,-0.497 5.228,-0.793 8.02,-1.203 -0.309,-0.22 -0.529,-0.409 -0.776,-0.55 -2.707,-1.537 -3.858,-4.046 -4.175,-6.97 -0.345,-3.196 0.191,-6.28 1.798,-9.1 0.875,-1.534 1.848,-3.016 2.838,-4.477 0.293,-0.432 0.801,-0.718 1.385,-1.223 0.209,0.56 0.364,0.897 0.462,1.25 1.18,4.28 2.759,8.414 4.493,12.498 1.117,2.632 2.855,4.855 4.535,7.11 2.31,3.102 4.759,6.105 7.544,8.796 7.45,7.198 16.286,10.796 26.73,10.049 0.871,-0.062 1.723,-0.455 2.587,-0.47 0.867,-0.014 1.732,0.322 2.607,0.383 1.282,0.089 2.571,0.078 3.858,0.092 0.226,0.003 0.576,-0.006 0.659,-0.14 0.394,-0.634 0.927,-0.48 1.496,-0.396 1.6,0.236 3.204,0.301 4.919,-0.068 0.112,-0.297 0.246,-0.654 0.379,-1.011 0.149,-0.027 0.338,-0.128 0.44,-0.071 2.368,1.325 5.05,1.609 7.613,2.267 2.017,0.517 4.071,0.886 6.44,1.391 -1.185,-1.694 -1.876,-3.298 -2.322,-4.991 -0.427,-1.624 -0.767,-3.271 -1.19,-5.1 0.572,0.22 1.029,0.396 1.497,0.575 0.058,-0.267 0.147,-0.428 0.111,-0.553 -0.627,-2.164 -1.305,-4.314 -1.892,-6.489 -0.277,-1.021 -0.572,-1.994 -1.831,-2.731 1.548,-0.427 2.194,0.71 3.334,0.897 -0.189,-1.175 -1.011,-1.856 -1.503,-2.692 -0.572,-0.97 -1.203,-1.909 -1.868,-2.817 -0.614,-0.838 -1.307,-1.617 -1.98,-2.44 0.25,-0.501 0.645,-0.276 0.979,-0.114 1.004,0.484 1.994,1.001 3.075,1.548 -1.242,-2.931 -3.474,-6.198 -5.66,-8.331 0.043,-0.432 0.346,-0.478 0.673,-0.422 0.677,0.117 1.348,0.261 2.54,0.496 C 81.053,19.629 79.386,17.36 76.39,16.03 77.451,15.827 78.119,15.699 78.725,15.583 79.048,14.7 78.566,14.225 78.128,13.764 75.565,11.072 72.856,8.552 69.643,6.632 69.175,6.353 68.731,6.034 68.071,5.597 68.872,5.068 69.486,4.663 70.271,4.146 68.407,3.075 66.617,2.373 64.836,1.706 62.882,0.974 60.864,0.373 58.833,-0.108 53.137,-1.457 47.364,-1.665 41.553,-1.036 c -2.482,0.269 -4.968,0.484 -7.447,0.775 -0.957,0.112 -1.905,0.33 -2.842,0.562 -2.173,0.541 -4.292,1.253 -6.5,2.062 0.785,1.744 1.831,3.135 3.219,4.254 3.576,2.882 7.17,5.737 10.748,8.614 1.632,1.312 3.283,2.605 4.846,3.995 1.177,1.047 2.455,1.425 3.997,1.211 1.908,-0.266 3.809,-0.418 5.601,-1.303 0.904,-0.446 2.028,-0.587 3.058,-0.609 4.933,-0.106 9.819,0.284 14.572,1.731 0.224,0.068 0.426,0.21 0.973,0.485 -0.572,0.046 -0.826,0.123 -1.055,0.076 -5.234,-1.065 -10.425,-0.459 -15.61,0.38 -1.585,0.256 -3.164,0.554 -4.738,0.873 -0.358,0.073 -0.685,0.31 -0.994,0.456 0.057,0.289 0.038,0.479 0.123,0.589 1.239,1.6 2.303,3.301 3.015,5.204 0.376,1.008 1.018,1.59 2.166,1.535 4.624,-0.221 8.658,1.641 12.587,3.722 2.49,1.318 4.916,2.782 6.907,4.836 0.775,0.8 1.534,1.615 2.3,2.429 0.018,0.147 0.049,0.29 0.045,0.432 -0.001,0.073 -0.062,0.145 -0.097,0.218 -0.011,-0.074 -0.038,-0.149 -0.031,-0.22 0.016,-0.149 0.049,-0.297 0.076,-0.445 -0.404,0.181 -0.745,0.152 -1.071,-0.201 -0.653,-0.71 -1.27,-1.476 -2.018,-2.072 -4.273,-3.409 -9.039,-5.872 -14.321,-7.317 -1.34,-0.366 -2.694,-0.417 -4.251,-0.235 0.144,0.502 0.178,0.98 0.402,1.338 1.624,2.595 3.25,5.192 5.436,7.375 0.272,0.272 0.486,0.601 0.914,1.138 -0.83,-0.018 -1.235,-0.366 -1.608,-0.667 -3.446,-2.786 -6.904,-5.557 -10.301,-8.402 -1.541,-1.292 -3.028,-2.669 -4.4,-4.138 -1.31,-1.402 -2.437,-2.974 -3.753,-4.607 -0.09,1.182 -0.158,2.265 -0.258,3.346 -0.11,1.203 -0.263,2.403 -0.373,3.606 -0.103,1.123 -0.177,2.249 -0.264,3.373 -0.085,1.124 -0.184,2.248 -0.255,3.373 -0.073,1.126 -0.145,2.252 -0.165,3.379 -0.022,1.208 0.043,2.417 0.022,3.625 -0.019,1.089 0.134,2.185 0.183,3.516 -0.39,-0.337 -0.569,-0.415 -0.586,-0.519 -0.196,-1.192 -0.463,-2.383 -0.524,-3.584 -0.171,-3.378 -0.254,-6.761 -0.372,-10.142 -0.061,-1.77 -0.138,-3.541 -0.18,-5.312 -0.036,-1.499 -0.506,-2.86 -1.325,-4.086 -0.847,-1.27 -1.704,-2.547 -2.682,-3.715 -2.01,-2.4 -4.104,-4.73 -6.238,-7.175 -0.085,1.243 -0.14,2.413 -0.251,3.577 -0.105,1.123 -0.305,2.237 -0.392,3.361 -0.093,1.204 -0.061,2.417 -0.16,3.62 -0.09,1.09 0.142,2.215 -0.27,3.513 C 26.783,25.825 26.733,24.938 26.65,24.089 26.313,20.643 26.021,17.192 25.714,13.743 25.671,13.262 25.612,12.779 25.614,12.297 25.629,9.4 24.456,6.98 22.602,4.852 19.721,1.544 17.537,-2.199 15.54,-6.082 c -0.856,-1.666 -1.057,-3.303 -0.797,-5.13 0.477,-3.347 0.75,-6.723 1.222,-10.071 0.326,-2.313 -0.007,-4.515 -0.845,-6.635 -0.766,-1.938 -1.701,-3.809 -2.625,-5.85 0.297,-0.11 0.629,-0.303 0.981,-0.352 6.329,-0.867 12.52,-2.313 18.55,-4.416 2.683,-0.936 5.086,-2.441 7.395,-4.056 1.035,-0.724 1.95,-1.699 2.718,-2.713 3.531,-4.661 6.144,-9.82 8.127,-15.316 3.481,-9.652 5.013,-19.639 5.176,-29.861 0.047,-2.988 -0.098,-5.978 -0.984,-8.855 -0.494,-1.608 -1.034,-3.246 -1.854,-4.701 -2.149,-3.812 -5.402,-5.909 -9.904,-5.644 -2.006,0.119 -4.003,0.383 -6.003,0.586 -0.632,0.065 -1.26,0.147 -2.132,0.248 0.214,-0.531 0.277,-0.922 0.494,-1.183 0.971,-1.178 1.914,-2.395 3.003,-3.458 2.142,-2.092 4.634,-3.724 7.214,-5.235 1.681,-0.985 3.441,-1.296 5.343,-0.988 0.772,0.124 1.55,0.207 2.604,0.345 -0.289,-0.479 -0.419,-0.745 -0.596,-0.979 -1.701,-2.245 -3.367,-4.519 -5.128,-6.717 -1.712,-2.135 -3.451,-4.256 -5.311,-6.26 -1.814,-1.954 -3.917,-3.6 -6.265,-4.895 -1.835,-1.011 -3.638,-2.101 -5.542,-2.962 -5.712,-2.582 -10.842,-6.083 -15.551,-10.138 -6.476,-5.577 -13.975,-8.938 -22.218,-10.636 -6.5,-1.339 -13.108,-1.533 -19.716,-0.621 -1.915,0.264 -3.836,0.486 -5.74,0.821 -4.111,0.722 -7.889,2.279 -11.239,4.785 -0.83,0.622 -1.619,1.359 -2.246,2.181 -1.66,2.18 -3.234,4.426 -4.367,6.944 -0.264,0.587 -0.52,1.192 -0.884,1.717 -2.889,4.173 -5.778,8.347 -8.72,12.483 -1.788,2.515 -3.929,4.688 -6.59,6.311 -0.473,0.289 -0.899,0.672 -1.298,1.062 -0.125,0.123 -0.09,0.41 -0.164,0.814 0.579,-0.06 1.036,-0.095 1.49,-0.154 4.872,-0.64 9.727,-1.475 14.619,-1.858 3.188,-0.25 6.447,-0.03 9.641,0.301 9.875,1.022 18.939,4.398 27.303,9.731 2.656,1.694 5.232,3.476 7.615,5.541 4.621,4.004 7.008,9.147 7.769,15.12 0.111,0.872 0.096,1.775 0.019,2.653 -0.353,4.094 -0.746,8.183 -1.134,12.273 -0.045,0.468 -0.149,0.93 -0.319,1.969 -0.273,-0.948 -0.448,-1.332 -0.486,-1.729 -0.098,-1.026 0.071,-2.093 -0.486,-3.041 -0.432,-0.099 -0.814,-0.186 -1.197,-0.274 0.046,-0.143 0.051,-0.353 0.138,-0.396 0.765,-0.377 1.067,-0.934 0.726,-1.923 -0.269,-0.1 -0.628,-0.227 -0.983,-0.364 -0.354,-0.137 -0.705,-0.284 -1.083,-0.436 0.255,-0.776 0.919,-0.745 1.347,-1.037 0.577,-0.394 0.639,-0.874 0.275,-1.602 -1.024,-0.005 -2.122,-0.012 -3.511,-0.02 0.545,-0.482 0.891,-0.86 1.305,-1.135 0.467,-0.308 1.029,-0.474 1.487,-0.791 0.51,-0.353 0.675,-0.878 0.326,-1.624 -1.663,0.303 -3.37,0.614 -5.116,0.932 0.078,-0.896 0.83,-0.886 1.267,-1.199 0.515,-0.368 1.139,-0.59 1.73,-0.844 0.581,-0.249 1.179,-0.457 1.719,-0.664 0.091,-0.648 -0.31,-0.868 -0.694,-0.848 -0.634,0.032 -1.269,0.188 -1.889,0.35 -1.393,0.365 -2.778,0.764 -4.62,1.277 0.437,-0.6 0.554,-0.898 0.774,-1.038 1.217,-0.779 2.464,-1.515 3.692,-2.278 0.232,-0.144 0.429,-0.345 0.881,-0.715 -0.955,-0.245 -1.539,0.03 -2.123,0.16 -0.629,0.139 -1.252,0.31 -1.874,0.478 -0.701,0.189 -1.406,0.366 -2.096,0.59 -0.612,0.199 -1.197,0.482 -1.81,0.679 -0.553,0.178 -1.057,0.741 -1.822,0.299 0.934,-0.73 1.806,-1.384 2.646,-2.076 0.786,-0.649 1.538,-1.338 2.534,-2.209 -2.861,0.425 -5.318,1.325 -8.196,2.073 0.842,-1.052 1.819,-1.32 2.518,-1.935 0.653,-0.573 1.441,-0.998 1.934,-1.7 -0.185,-0.485 -0.513,-0.41 -0.813,-0.32 -1.467,0.44 -2.928,0.899 -4.395,1.342 -0.844,0.253 -1.693,0.49 -2.579,0.745 -0.239,-0.796 0.418,-0.823 0.722,-1.039 1.241,-0.886 2.532,-1.703 3.771,-2.59 0.28,-0.201 0.432,-0.583 0.871,-1.206 -3.028,0.627 -5.627,1.309 -8.197,2.177 -0.245,-0.681 0.317,-0.671 0.558,-0.842 0.854,-0.604 1.753,-1.144 2.613,-1.741 0.509,-0.353 1.063,-0.698 1.17,-1.353 -0.071,-0.127 -0.092,-0.222 -0.148,-0.25 -0.063,-0.032 -0.164,-0.025 -0.237,-10e-4 -2.367,0.783 -4.733,1.57 -7.1,2.353 -0.07,0.024 -0.156,0.001 -0.425,-0.001 1.461,-1.79 3.887,-2.316 4.986,-4.332 -0.366,-0.489 -0.766,-0.166 -1.067,-0.042 -1.79,0.728 -3.56,1.502 -5.337,2.264 -0.736,0.315 -1.469,0.634 -2.206,0.95 -0.129,0.152 -0.239,0.327 -0.392,0.446 -0.048,0.038 -0.212,-0.074 -0.322,-0.117 0.052,-0.048 0.098,-0.124 0.161,-0.141 0.202,-0.06 0.411,-0.099 0.617,-0.146 0.136,-0.972 1.076,-1.08 1.683,-1.527 1.618,-1.192 3.278,-2.327 4.908,-3.502 0.312,-0.226 0.566,-0.53 1.26,-1.194 -1.717,0.467 -2.739,1.158 -3.863,1.576 -1.13,0.42 -2.21,0.974 -3.333,1.414 -1.157,0.453 -2.217,1.194 -3.868,1.42 2.529,-2.399 5.371,-3.82 7.548,-5.964 -0.166,-0.577 -0.521,-0.496 -0.79,-0.376 -3.75,1.678 -7.875,2.328 -11.549,4.215 -0.052,0.026 -0.138,-0.013 -0.435,-0.049 2.374,-1.999 4.632,-3.9 6.991,-5.886 -0.288,-0.171 -0.497,-0.394 -0.626,-0.355 -3.702,1.119 -7.406,2.237 -10.758,4.241 -0.202,0.12 -0.373,0.293 -0.56,0.441 -0.409,0.119 -0.818,0.236 -1.227,0.354 -0.008,-0.033 -0.016,-0.067 -0.024,-0.102 0.418,-0.088 0.837,-0.178 1.255,-0.267 -0.197,-0.323 -0.136,-0.584 0.161,-0.82 1.263,-1.001 2.51,-2.022 3.78,-3.013 1.073,-0.837 1.987,-1.815 2.854,-2.804 -0.396,-0.535 -0.653,-0.212 -0.907,-0.117 -1.053,0.392 -2.089,0.835 -3.156,1.187 -2.134,0.705 -4.284,1.363 -6.489,2.06 1.512,-1.741 3.509,-2.934 5.145,-4.447 -0.071,-0.526 -0.382,-0.565 -0.695,-0.439 -1.568,0.631 -3.126,1.281 -4.685,1.933 -0.593,0.248 -1.17,0.534 -1.767,0.771 -0.273,0.11 -0.577,0.143 -1.089,0.262 0.425,-1.572 1.99,-2.027 2.552,-3.271 -1.458,-0.101 -2.094,0.029 -4.134,0.939 -1.235,0.552 -2.442,1.164 -3.941,1.883 0.845,-1.758 2.717,-2.198 3.298,-3.706 -0.119,-0.15 -0.16,-0.228 -0.224,-0.271 -0.058,-0.04 -0.153,-0.076 -0.213,-0.056 -2.133,0.695 -4.264,1.396 -6.5,2.131 0.147,-0.869 1.391,-0.732 1.382,-1.754 -1.588,0.209 -3.15,0.497 -4.724,0.598 -1.602,0.105 -3.222,-0.072 -4.822,0.047 -3.822,0.284 -7.416,1.446 -10.892,3.025 -3.52,1.598 -7.142,2.999 -10.378,5.152 -1.674,1.112 -3.256,2.364 -4.867,3.568 -0.102,0.075 -0.104,0.283 -0.157,0.443 0.099,0.468 0.48,0.329 0.759,0.297 2.483,-0.28 4.966,-0.548 7.442,-0.876 4.836,-0.641 9.645,-0.308 14.446,0.335 7.393,0.992 14.456,3.233 21.397,5.857 5.201,1.965 10.331,4.111 15.35,6.522 4.381,2.105 8.397,4.789 12.403,7.498 7.711,5.215 13.883,11.948 19.305,19.449 2.796,3.868 5.193,7.95 7.239,12.251 1.311,2.754 2.028,5.591 1.365,8.667 -0.465,2.165 -1.418,4.1 -2.58,5.955 -0.555,0.887 -1.111,1.777 -1.606,2.697 -0.128,0.238 -0.035,0.601 -0.023,0.905 0.002,0.047 0.114,0.09 0.174,0.135 0.149,-0.022 0.378,0.008 0.433,-0.076 0.667,-1.027 1.676,-1.422 2.814,-1.679 2.612,-0.591 5.272,-0.664 7.922,-0.849 1.527,-0.105 3.059,-0.151 4.58,-0.302 0.876,-0.087 1.743,-0.301 2.599,-0.517 0.283,-0.073 0.669,-0.282 0.749,-0.516 0.389,-1.142 1.227,-1.062 2.156,-0.961 0.663,0.073 1.36,0.606 2.149,-0.145 -0.679,-0.571 -1.331,-1.119 -1.92,-1.614 0.05,-0.612 0.398,-0.591 0.695,-0.513 1.048,0.278 2.087,0.59 3.239,0.922 -0.209,-1.28 -1.685,-1.492 -2.05,-2.501 0.747,-0.858 1.774,-0.034 2.605,-0.617 -0.177,-0.296 -0.332,-0.557 -0.497,-0.834 0.837,-0.858 1.795,0.251 2.812,-0.187 -0.302,-0.941 -1.53,-0.831 -1.927,-1.784 0.298,-0.069 0.576,-0.202 0.84,-0.179 0.475,0.041 0.942,0.176 1.649,0.32 -0.179,-0.494 -0.218,-0.906 -0.441,-1.152 -0.423,-0.47 -0.952,-0.845 -1.435,-1.259 0.306,-0.575 0.736,-0.294 1.062,-0.214 0.624,0.152 1.214,0.443 1.839,0.589 0.354,0.083 0.747,-0.01 1.345,-0.031 -0.541,-1.127 -1.404,-1.519 -2.191,-2.002 -0.753,-0.462 -1.492,-0.948 -2.268,-1.445 1.106,-0.429 2.131,-0.475 3.101,0.035 0.915,0.481 1.754,1.105 2.936,1.866 -0.436,-0.87 -0.705,-1.408 -1.014,-2.023 0.804,-0.415 1.496,-0.77 2.2,-1.133 -1.066,-0.825 -1.69,-1.033 -4.218,-1.337 -1.512,-0.181 -3.027,-0.321 -4.911,-0.518 1.358,-0.793 2.559,-0.461 3.649,-0.685 1.102,-0.227 2.232,-0.317 3.347,-0.486 1.142,-0.173 2.355,0.034 3.553,-0.537 -1.765,-1.229 -3.984,-1.623 -10.93,-1.967 4.31,-1.467 8.427,-2.015 13.06,-2.715 -0.896,-0.277 -1.284,-0.456 -1.688,-0.512 -3.674,-0.505 -7.357,-0.89 -11.073,-0.863 -0.535,0.003 -1.071,-0.097 -1.609,-0.263 4.597,-1.468 9.395,-2.012 14.346,-3.437 -1.113,-0.547 -2.002,-0.453 -2.829,-0.586 -0.953,-0.153 -1.917,-0.248 -2.879,-0.326 -0.883,-0.071 -1.768,-0.105 -2.654,-0.119 -0.966,-0.015 -1.933,0.012 -2.9,0.019 -0.856,0.006 -1.714,0.008 -3.086,0.014 1.058,-0.812 1.856,-0.836 2.568,-1.044 0.696,-0.202 1.407,-0.354 2.114,-0.515 0.786,-0.179 1.576,-0.342 2.362,-0.518 0.787,-0.177 1.573,-0.36 2.357,-0.544 0.707,-0.167 1.419,-0.312 2.114,-0.517 0.733,-0.215 1.447,-0.489 2.241,-0.763 -0.508,-0.675 -1.09,-0.61 -1.621,-0.621 -2.174,-0.04 -4.347,-0.051 -6.521,-0.081 -1.531,-0.021 -3.061,-0.058 -4.59,-0.082 -0.418,-0.007 -0.803,-0.059 -1.019,-0.484 -0.346,0.146 -0.69,0.292 -1.033,0.436 -0.017,-0.042 -0.035,-0.085 -0.052,-0.128 0.358,-0.103 0.715,-0.206 1.074,-0.309 3.389,-0.72 6.776,-1.452 10.17,-2.153 1.649,-0.341 3.311,-0.622 4.958,-0.928 -0.012,-0.718 -0.502,-0.675 -0.825,-0.681 -2.897,-0.055 -5.797,-0.109 -8.694,-0.097 -2.812,0.011 -5.623,0.1 -8.488,0.157 0.086,-0.506 0.55,-0.43 0.847,-0.541 0.374,-0.14 0.782,-0.191 1.173,-0.287 5.622,-1.385 11.243,-2.772 16.838,-4.151 0.021,-0.621 -0.36,-0.525 -0.635,-0.516 -3.299,0.101 -6.599,0.218 -9.899,0.322 -2.722,0.086 -5.443,0.16 -8.299,0.243 0.138,-0.754 0.65,-0.752 1.056,-0.845 3.457,-0.794 6.927,-1.533 10.373,-2.377 2.107,-0.516 4.177,-1.187 6.254,-1.906 -5.776,0.178 -11.543,0.399 -17.298,0.209 -0.031,-0.146 -0.073,-0.231 -0.058,-0.303 0.014,-0.06 0.087,-0.122 0.149,-0.154 0.141,-0.073 0.29,-0.14 0.441,-0.188 1.533,-0.5 3.065,-1.005 4.604,-1.487 0.614,-0.192 1.245,-0.337 1.871,-0.489 0.862,-0.208 1.725,-0.413 2.592,-0.6 0.704,-0.151 1.415,-0.271 2.12,-0.414 0.04,-0.007 0.062,-0.1 0.165,-0.279 -0.308,-0.11 -0.585,-0.288 -0.87,-0.301 -2.168,-0.093 -4.34,-0.147 -6.51,-0.232 -1.445,-0.057 -2.896,-0.081 -4.33,-0.247 -0.679,-0.078 -1.495,-0.255 -1.627,-1.173 -0.094,-0.652 0.473,-1.194 1.65,-1.454 1.099,-0.242 2.228,-0.338 3.34,-0.523 1.905,-0.316 3.809,-0.644 5.709,-0.986 0.276,-0.05 0.535,-0.198 1.046,-0.395 -1.695,-0.543 -3.112,0.022 -4.528,-0.034 -1.367,-0.053 -2.739,0.032 -4.106,-0.006 -1.438,-0.04 -2.887,-0.086 -4.459,-0.744 0.341,-0.264 0.537,-0.499 0.787,-0.595 1.051,-0.408 2.101,-0.827 3.181,-1.141 1.47,-0.426 2.964,-0.773 4.454,-1.124 0.546,-0.128 1.111,-0.222 1.671,-0.236 2.011,-0.055 4.023,-0.088 6.036,-0.09 0.964,-0.001 1.928,0.077 2.891,0.134 2.392,0.138 4.255,1.269 5.872,2.987 2.595,2.76 4.347,5.929 5.367,9.595 1.248,4.491 1.473,9.041 1.365,13.651 -0.165,7.084 -1.612,13.909 -4.041,20.543 -1.311,3.582 -3.175,6.877 -5.314,10.017 -1.151,1.688 -2.715,2.978 -4.39,4.111 -2.206,1.493 -4.551,2.727 -7.019,3.762 -6.812,2.855 -13.928,3.993 -21.262,3.805 -2.325,-0.059 -4.645,-0.483 -6.955,-0.817 -0.517,-0.075 -1.049,-0.397 -1.47,-0.733 -3.539,-2.831 -7.4,-5.151 -11.39,-7.271 -0.487,-0.259 -0.954,-0.554 -1.483,-0.864 1.647,-3.812 2.477,-7.695 2.34,-11.783 -0.15,-4.439 -1.256,-8.579 -3.49,-12.433 -1.947,-3.36 -4.178,-6.518 -6.742,-9.421 -2.877,-3.259 -5.681,-6.596 -9.028,-9.41 -1.617,-1.36 -3.399,-2.444 -5.336,-3.283 -3.328,-1.443 -6.653,-2.894 -9.983,-4.33 -0.582,-0.251 -1.187,-0.45 -1.958,-0.739 0.084,0.385 0.058,0.678 0.176,0.758 4.843,3.283 8.161,7.965 11.536,12.584 1.81,2.481 3.15,5.239 4.472,8.005 2.814,5.888 5.236,11.962 8.421,17.672 0.902,1.617 1.859,3.203 2.766,4.818 0.215,0.381 0.325,0.821 0.633,1.621 -1.332,-0.757 -2.263,-1.363 -3.051,-2.157 -1.994,-2.01 -3.773,-4.193 -5.135,-6.687 -0.385,-0.704 -0.723,-1.442 -0.99,-2.198 -2.024,-5.708 -4.391,-11.274 -7.352,-16.553 -3.57,-6.37 -7.994,-12.057 -13.714,-16.715 -4.324,-3.523 -2.742,-2.676 -8.022,-4.07 -7.095,-1.873 -14.262,-3.414 -21.57,-4.202 -7.551,-0.815 -15.017,-0.468 -22.118,2.469 -3.487,1.442 -6.813,3.291 -10.156,5.064 -2.422,1.284 -4.699,2.821 -6.755,4.654 -0.721,0.642 -1.392,1.34 -2.088,2.011 -0.746,0.721 -0.996,1.586 -0.939,2.627 0.274,5.012 -0.146,9.984 -1.063,14.911 -0.71,3.815 -1.745,7.548 -3.445,11.049 -2.198,4.525 -3.689,9.29 -4.891,14.146 -0.995,4.023 -1.113,8.13 -0.756,12.252 0.052,0.609 0.286,1.246 -0.29,2.067 -0.838,-2.49 -1.505,-4.783 -2.005,-7.13 -1.245,-5.841 -0.644,-11.552 1.3,-17.136 1.06,-3.042 2.291,-6.024 3.456,-9.029 0.465,-1.203 0.987,-2.384 1.429,-3.595 1.366,-3.735 1.295,-7.584 0.85,-11.455 -0.045,-0.395 -0.188,-0.783 -0.318,-1.163 -0.134,-0.395 -0.664,-0.593 -0.98,-0.338 -0.624,0.504 -1.227,1.038 -1.815,1.583 -2.782,2.571 -5.515,5.194 -8.34,7.714 -3.801,3.389 -8.109,6.089 -12.307,8.943 -3.463,2.354 -6.821,4.866 -10.175,7.375 -3.004,2.248 -4.999,5.242 -5.981,8.856 -0.908,3.342 -1.7,6.716 -2.544,10.076 -0.254,1.014 -0.485,2.036 -0.778,3.039 -0.102,0.346 -0.365,0.644 -0.835,1.439 0.161,-3.833 0.162,-7.113 0.465,-10.365 0.578,-6.176 3.642,-11.096 8.182,-15.157 2.656,-2.376 5.794,-4.074 8.774,-5.987 3.527,-2.262 7.082,-4.48 10.602,-6.752 4.84,-3.123 9.027,-6.97 12.818,-11.308 2.381,-2.726 4.952,-5.302 7.59,-7.783 1.634,-1.535 3.473,-2.89 5.362,-4.107 3.316,-2.137 6.695,-4.187 10.138,-6.11 1.807,-1.008 3.806,-1.67 5.785,-2.518 0.134,-0.407 -0.187,-0.632 -0.582,-0.786 -2.701,-1.061 -5.393,-2.144 -8.111,-3.16 -2.363,-0.885 -4.743,-0.783 -7.099,0.09 -0.679,0.252 -1.351,0.531 -2.041,0.754 -0.616,0.199 -1.253,0.35 -1.922,-0.103 -0.134,-0.466 -0.285,-0.987 -0.435,-1.511 -0.176,0.063 -0.386,0.072 -0.437,0.165 -0.457,0.844 -0.884,1.702 -1.261,2.442 -0.69,0.169 -0.654,-0.283 -0.791,-0.523 -0.159,-0.277 -0.229,-0.614 -0.422,-0.857 -0.124,-0.155 -0.418,-0.281 -0.606,-0.249 -0.193,0.034 -0.461,0.25 -0.503,0.431 -0.143,0.624 -0.185,1.271 -0.299,1.903 -0.096,0.53 -0.24,1.052 -0.419,1.824 -0.838,-0.947 -0.56,-2.177 -1.503,-2.937 -0.782,1.091 -0.782,2.549 -1.901,3.391 -0.994,-0.591 -0.707,-1.791 -1.453,-2.607 -0.196,0.178 -0.521,0.33 -0.565,0.541 -0.232,1.097 -0.433,2.206 -0.56,3.319 -0.081,0.706 -0.016,1.429 -0.016,2.199 -0.624,-0.053 -0.535,-0.549 -0.647,-0.848 -0.17,-0.451 -0.257,-0.932 -0.374,-1.402 -0.098,-0.39 -0.16,-0.793 -0.291,-1.173 -0.117,-0.34 -0.307,-0.657 -0.54,-1.142 -0.744,0.648 -0.432,1.347 -0.567,1.909 -0.171,0.704 -0.283,1.423 -0.409,2.138 -0.109,0.627 -0.204,1.257 -0.553,1.907 -0.218,-1.207 -0.435,-2.415 -0.722,-4.016 -1.084,2.021 -1.434,3.847 -1.664,6.198 -0.764,-1.933 -1.104,-3.516 -2.303,-4.895 -0.8,2.456 0.244,4.898 -0.507,7.367 -1.883,-1.51 -2.302,-3.794 -3.547,-5.434 -0.633,-0.075 -0.881,0.264 -0.812,0.695 0.28,1.748 0.597,3.492 0.95,5.227 0.219,1.077 0.529,2.135 0.907,3.632 -1.908,-2.528 -3.528,-4.676 -5.316,-7.048 -0.174,1.796 0.132,3.333 0.264,4.859 0.13,1.49 0.822,2.911 0.768,4.887 -1.645,-1.828 -1.924,-4.095 -3.66,-5.324 -0.553,0.197 -0.392,0.614 -0.249,0.962 0.895,2.171 1.03,4.48 1.41,7.014 -0.972,-0.573 -1.067,-1.454 -1.518,-2.064 -0.478,-0.645 -0.829,-1.382 -1.3,-2.035 -0.456,-0.632 -0.776,-1.407 -1.512,-1.74 -0.154,0.044 -0.255,0.045 -0.303,0.096 -0.041,0.043 -0.046,0.15 -0.026,0.217 0.371,1.23 0.799,2.447 1.113,3.691 0.394,1.559 0.696,3.14 1.12,5.093 -0.434,-0.489 -0.695,-0.696 -0.841,-0.964 -0.619,-1.137 -1.345,-2.174 -2.248,-3.12 -0.658,-0.688 -1.096,-1.583 -1.64,-2.38 -0.159,-0.233 -0.346,-0.447 -0.593,-0.762 -0.288,1.256 -0.24,1.238 0.544,3.03 0.386,0.883 0.648,1.823 0.935,2.746 0.304,0.98 0.573,1.972 1.017,3.511 -1.178,-1.165 -1.808,-2.07 -2.547,-2.873 -0.749,-0.813 -1.54,-1.587 -2.436,-2.505 -0.355,0.777 0.162,1.182 0.31,1.649 0.146,0.46 0.328,0.909 0.499,1.362 0.199,0.527 0.405,1.054 0.605,1.581 0.173,0.452 0.361,0.899 0.507,1.36 0.17,0.538 0.343,1.081 0.434,1.634 0.072,0.43 0.02,0.88 0.025,1.575 -2.12,-1.65 -2.972,-4.075 -5.025,-5.749 -0.342,0.891 -0.115,1.509 -0.082,2.098 0.033,0.561 0.154,1.117 0.265,1.67 0.127,0.632 0.287,1.258 0.432,1.887 0.126,0.547 0.249,1.095 0.366,1.612 -0.387,0.351 -0.621,0.136 -0.795,-0.13 -0.484,-0.74 -0.914,-1.516 -1.423,-2.238 -0.445,-0.631 -0.699,-1.484 -1.767,-1.648 -0.55,1.136 -0.012,2.34 -0.165,3.49 -0.141,1.071 -0.109,2.165 -0.162,3.444 -1.244,-0.925 -1.112,-2.594 -2.555,-3.264 -0.146,0.312 -0.38,0.614 -0.419,0.939 -0.068,0.555 0.013,1.126 -0.016,1.687 -0.036,0.701 -0.121,1.399 -0.186,2.117 -1.063,0.035 -0.666,-1.096 -1.334,-1.25 -3.704,3.582 -8.428,5.001 -13.378,5.91 -4.266,0.783 -8.504,0.452 -12.733,-0.32 -1.426,-0.26 -2.855,-0.504 -4.287,-0.736 -0.207,-0.034 -0.431,0.04 -1.003,0.104 1.614,0.958 2.951,1.75 4.229,2.507 -0.114,0.648 -0.488,0.546 -0.76,0.506 -1.593,-0.231 -3.182,-0.49 -4.772,-0.74 -1.032,-0.163 -1.032,-0.163 -2.423,0.349 1.146,1.331 3.054,1.496 4.179,2.986 -0.793,0.276 -1.42,-0.198 -2.075,-0.288 -0.718,-0.098 -1.426,-0.271 -2.145,-0.339 -0.682,-0.065 -1.334,-0.53 -2.259,-0.221 0.913,1.646 2.597,2.255 3.719,3.435 -0.494,0.633 -1.083,0.791 -1.737,0.536 -1.049,-0.409 -2.074,-0.877 -3.112,-1.312 -0.358,-0.15 -0.734,-0.391 -1.166,0.188 0.519,1.264 1.928,1.483 2.904,2.209 0.959,0.714 1.968,1.361 2.954,2.037 -0.378,0.549 -0.785,0.503 -1.172,0.388 -1.384,-0.413 -2.782,-0.795 -4.133,-1.297 -0.734,-0.273 -1.368,-0.236 -2.213,0.136 1.289,0.869 2.485,1.673 3.679,2.479 0.736,0.496 1.473,0.988 2.203,1.492 0.485,0.335 0.441,0.807 0.297,1.295 0.282,-0.122 0.552,-0.304 0.846,-0.356 0.862,-0.152 1.151,0.09 1.49,1.259 -0.55,-0.327 -0.989,-0.639 -1.47,-0.851 -0.245,-0.108 -0.571,-0.038 -0.859,-0.048"
             style="fill:#1c1c1a;fill-opacity:1;fill-rule:nonzero;stroke:none"
             id="path22" />
        </g>
        <g
           id="g24"
           transform="translate(190.1582,131.6172)">
          <path
             d="m 0,0 c -0.616,-0.133 -1.266,-0.184 -1.844,-0.413 -3.385,-1.337 -6.48,-3.191 -9.321,-5.453 -0.745,-0.594 -1.39,-1.334 -1.986,-2.082 -0.274,-0.345 -0.319,-0.871 -0.47,-1.31 l -0.399,0.032 c 0.022,-0.092 0.044,-0.185 0.066,-0.278 0.098,0.107 0.195,0.214 0.293,0.32 0.184,0.145 0.396,0.265 0.55,0.437 2.095,2.362 4.62,4.158 7.41,5.594 1.561,0.802 3.159,1.534 4.729,2.32 0.394,0.197 0.958,0.258 0.947,0.896 0.458,-0.299 0.824,-0.289 1.092,0.45 C 0.633,0.304 0.316,0.152 0,0 m -26.804,30.639 c 1.405,-2.057 3.437,-2.667 5.629,-3.07 2.215,-0.406 4.401,-0.973 6.603,-1.471 0.21,0.369 -0.022,0.588 -0.31,0.731 -3.573,1.779 -6.501,4.449 -9.565,6.928 -0.56,0.453 -1.058,0.997 -1.518,1.555 -2.366,2.864 -4.453,5.926 -6.304,9.144 -0.434,0.755 -0.704,1.621 -0.932,2.467 -0.081,0.299 0.185,0.691 0.335,1.177 1.945,-1.24 3.38,-2.753 4.841,-4.226 0.622,-0.626 1.175,-1.331 1.684,-2.054 3.043,-4.319 7.111,-7.433 11.721,-9.866 2.347,-1.238 4.803,-2.268 7.209,-3.393 2.553,-1.194 5.094,-2.413 7.661,-3.575 6.33,-2.863 12.892,-4.475 19.921,-4.006 4.454,0.298 8.745,1.35 13.074,2.274 0.944,0.202 1.894,0.388 2.842,0.569 1.711,0.327 2.915,-0.239 3.78,-1.828 1.077,-1.976 2.283,-3.89 3.532,-5.764 3.063,-4.594 7.288,-7.871 11.999,-10.649 4.894,-2.884 10.117,-4.963 15.444,-6.838 0.985,-0.347 1.943,-0.775 2.894,-1.209 0.996,-0.454 1.361,-1.277 1.337,-2.354 -0.089,-4.105 -1.045,-7.974 -3.098,-11.544 -0.298,-0.519 -0.322,-1.278 -1.227,-1.507 -0.398,1.361 -0.793,2.711 -1.271,4.346 -0.797,-1.946 -1.464,-3.611 -2.159,-5.263 -0.702,-1.67 -1.43,-3.327 -2.238,-5.201 -0.596,1.134 -1.063,2.023 -1.687,3.211 -0.257,-0.535 -0.383,-0.772 -0.487,-1.018 -0.466,-1.106 -0.775,-2.313 -1.418,-3.306 -1.438,-2.219 -2.817,-4.461 -3.841,-6.884 -0.599,0.13 -0.635,0.558 -0.688,0.946 -0.183,1.34 -0.344,2.682 -0.53,4.154 -0.32,-0.236 -0.588,-0.331 -0.669,-0.51 -1.154,-2.53 -2.933,-4.61 -4.74,-6.671 -1.259,-1.437 -2.793,-2.636 -3.548,-4.457 -1.426,0.523 -0.721,2.02 -1.526,2.632 -1.655,-1.54 -3.322,-3.026 -4.914,-4.589 -1.535,-1.507 -2.992,-3.093 -4.541,-4.705 -1.187,2.026 -0.13,4.041 0.174,6.329 -0.832,-0.512 -1.343,-0.868 -1.891,-1.152 -0.571,-0.296 -1.177,-0.522 -1.768,-0.782 -0.59,-0.259 -1.201,-0.481 -1.765,-0.788 -4.031,-2.201 -8.062,-4.401 -12.067,-6.649 -0.76,-0.425 -1.402,-1.062 -2.103,-1.605 -0.536,0.002 -0.634,0.431 -0.679,0.811 -0.086,0.707 -0.1,1.423 -0.144,2.15 -0.646,0.255 -0.877,-0.309 -1.219,-0.525 -2.177,-1.376 -4.289,-2.864 -6.5,-4.183 -9.689,-5.779 -19.411,-11.506 -29.11,-17.269 -2.774,-1.649 -5.618,-3.142 -8.665,-4.25 -0.421,0.675 0.261,0.848 0.524,1.107 3.066,2.996 5.845,6.207 8.024,9.927 2.052,3.502 3.637,7.173 4.547,11.138 0.808,3.526 0.652,7.062 0,10.561 -0.709,3.806 -1.966,7.473 -3.271,11.116 -0.072,0.2 -0.284,0.352 -0.521,0.634 -0.691,-0.803 -1.328,-1.546 -2.286,-2.66 0.103,1.092 0.211,1.688 0.203,2.283 -0.01,0.64 -0.112,1.282 -0.207,1.917 -0.085,0.557 -0.212,1.108 -0.331,1.659 -0.137,0.63 -0.329,1.251 -0.422,1.887 -0.341,2.307 -0.656,4.62 -0.97,6.931 -0.075,0.555 -0.109,1.117 -0.174,1.793 -1.713,-0.721 -2.391,-2.414 -3.812,-3.723 -0.108,0.543 -0.238,0.823 -0.204,1.081 0.319,2.395 0.666,4.788 1.005,7.18 0.351,2.47 0.472,4.931 -0.232,7.551 -1.039,-0.428 -1.504,-1.284 -2.118,-1.973 -0.608,-0.682 -0.877,-1.679 -2.004,-2.274 0.285,4.219 1.79,8.058 1.244,12.195 -0.994,-0.473 -1.23,-1.79 -2.393,-1.875 -0.273,1.343 0.134,6.375 0.878,10.964 -0.442,0.357 -0.714,-0.018 -1.025,-0.238 -0.432,-0.306 -0.866,-0.607 -1.259,-0.883 -0.476,0.376 -0.279,0.695 -0.201,0.978 0.733,2.64 1.439,5.29 2.235,7.912 0.658,2.168 1.72,4.167 2.88,6.104 0.532,0.89 1.092,1.785 2.332,2.445"
             style="fill:#1c1c1a;fill-opacity:1;fill-rule:nonzero;stroke:none"
             id="path26" />
        </g>
        <g
           id="g28"
           transform="translate(310.6309,86.3486)">
          <path
             d="m 0,0 c -0.101,0.544 -0.143,1.105 -0.31,1.628 -1.479,4.629 -2.424,9.351 -2.668,14.214 -0.084,1.677 -0.305,3.346 -0.46,4.969 0.463,0.328 0.658,0.028 0.882,-0.194 2.354,-2.315 4.667,-4.672 7.072,-6.932 4.089,-3.846 7.551,-8.202 10.153,-13.148 2.101,-3.995 3.576,-8.279 4.492,-12.73 0.405,-1.97 0.165,-3.844 -0.67,-5.657 -0.201,-0.438 -0.388,-0.887 -0.633,-1.302 -1.331,-2.262 -2.677,-4.514 -4.11,-6.923 -0.928,0.976 -0.501,2.085 -0.629,3.048 -0.125,0.938 -0.024,1.909 -0.441,2.965 -0.253,-0.224 -0.503,-0.334 -0.534,-0.49 -1.019,-4.999 -3.503,-9.342 -6.184,-13.567 -6.086,-9.591 -20.972,-17.606 -20.972,-17.606 0,0 -0.203,8.583 -0.394,9.528 -1.063,5.257 -2.87,10.232 -5.66,14.835 -1.163,1.92 -2.275,3.871 -3.537,6.025 -0.25,-1.037 -0.459,-1.911 -0.735,-3.059 -0.291,0.492 -0.471,0.777 -0.63,1.072 -0.724,1.346 -1.423,2.708 -2.171,4.042 -0.512,0.913 -1.132,1.766 -1.631,2.686 -0.488,0.901 -0.883,1.852 -1.367,2.882 -0.536,-0.85 -1.024,-1.624 -1.557,-2.469 -1.721,2.936 -2.642,5.646 -5.53,16.171 -1.322,-1.238 -1.473,-3.048 -2.415,-4.392 -0.619,-0.024 -0.549,0.486 -0.63,0.811 -0.61,2.452 -0.568,4.953 -0.496,7.451 0.061,2.089 0.171,4.177 0.268,6.449 -1.144,-0.624 -1.761,-1.906 -3.189,-1.822 0.21,5.413 2.249,10.247 3.923,15.263 -0.404,0.042 -0.743,0.077 -1.165,0.121 0.372,3.356 1.624,6.383 3.363,9.222 2.207,3.605 4.944,6.686 8.413,9.206 4.025,2.923 8.327,5.202 13,6.84 3.67,1.287 7.139,3.052 10.426,5.066 7.767,4.76 11.843,11.859 12.446,20.936 0.171,2.581 -0.047,5.154 -0.437,7.71 -0.07,0.456 -0.125,0.914 -0.183,1.353 0.572,0.192 0.664,-0.203 0.805,-0.417 1.956,-2.958 3.866,-5.945 5.851,-8.884 0.717,-1.06 1.54,-2.067 2.422,-2.996 1.442,-1.516 2.976,-2.947 4.465,-4.42 0.267,-0.265 0.503,-0.562 0.891,-1.001 -1.224,-0.133 -2.25,-0.246 -3.462,-0.379 1.592,-1.364 3.059,-2.567 4.462,-3.839 1.371,-1.246 2.673,-2.569 4.015,-3.847 1.384,-1.318 2.866,-2.543 4.01,-4.074 -0.458,-0.808 -1.117,-0.244 -1.749,-0.534 3.765,-4.547 6.528,-9.626 8.669,-15.301 -0.658,0.05 -1.091,0.083 -1.628,0.124 0.085,-1.142 0.656,-2.03 1.099,-2.949 1.417,-2.933 2.374,-6 2.67,-9.244 0.139,-1.519 0.103,-3.056 0.115,-4.586 0.003,-0.383 -0.111,-0.768 -0.176,-1.186 -1.142,-0.149 -1.379,1.14 -2.417,1.227 -0.167,-0.711 0.203,-1.351 0.29,-2.006 0.105,-0.799 0.274,-1.588 0.388,-2.386 0.102,-0.717 0.193,-1.439 0.242,-2.16 0.054,-0.804 0.071,-1.612 0.074,-2.417 0.003,-0.725 -0.008,-1.451 -0.062,-2.174 C 36.02,10.03 35.915,9.311 35.813,8.593 35.7,7.795 35.598,6.993 35.429,6.206 35.28,5.513 35.045,4.838 34.818,4.052 c -1.74,0.663 -1.561,2.765 -3.04,3.812 -0.116,-6.53 -2.17,-12.423 -4.334,-18.511 -0.849,0.753 -0.84,1.668 -1.026,2.484 -0.171,0.751 -0.176,1.561 -0.95,2.485 -0.341,-1.647 -0.568,-2.973 -0.897,-4.273 -0.316,-1.248 -0.725,-2.473 -1.117,-3.701 -0.411,-1.289 -0.849,-2.57 -1.299,-3.928 -0.689,0.364 -0.669,0.972 -0.711,1.482 -0.304,3.769 -1.621,7.214 -3.294,10.551 -0.179,0.36 -0.35,0.729 -0.477,1.11 -2.215,6.619 -6.056,12.239 -10.634,17.419 -1.919,2.172 -3.785,4.392 -5.635,6.624 -4.584,5.535 -7.025,12.073 -8.797,18.918 -0.016,0.066 0.048,0.152 0.134,0.396 0.252,-0.103 0.511,-0.176 0.738,-0.306 0.62,-0.359 1.187,-0.847 1.846,-1.098 5.283,-2.017 9.796,-5.205 13.888,-9.043 1.819,-1.706 3.629,-3.421 5.447,-5.13 0.066,-0.114 0.116,-0.239 0.195,-0.342 0.026,-0.033 0.122,-0.014 0.186,-0.019 -0.02,0.108 -0.011,0.286 -0.065,0.308 -0.111,0.045 -0.256,0.006 -0.387,0.002 0.006,0.22 0.099,0.496 0,0.648 -0.259,0.405 -0.575,0.78 -0.914,1.122 -3.515,3.549 -6.972,7.165 -10.888,10.285 -2.794,2.226 -4.729,5.018 -5.875,8.393 -0.773,2.279 -1.614,4.534 -2.481,6.956 -3.643,-2.21 -6.806,-4.655 -8.139,-8.853 -1.099,-3.46 -2.329,-6.877 -3.959,-10.128 -2.062,-4.115 -3.621,-8.441 -5.364,-12.69 -0.274,-0.664 -0.411,-1.384 -0.693,-2.36 0.386,0.433 0.68,0.645 0.813,0.931 2.481,5.347 5.642,10.31 8.666,15.351 0.742,1.237 1.469,2.483 2.285,3.865 0.217,-0.362 0.455,-0.601 0.513,-0.878 0.727,-3.478 1.229,-6.978 1.08,-10.55 -0.102,-2.447 -0.809,-4.76 -1.476,-7.082 -1.61,-5.608 -2.547,-11.323 -2.531,-17.159 0.007,-2.409 0.323,-4.817 0.523,-7.224 0.017,-0.204 0.216,-0.394 0.33,-0.591 -0.214,-0.498 -0.347,-0.983 0.203,-1.369 -0.044,-0.14 -0.082,-0.272 -0.12,-0.403 0.036,0.119 0.071,0.237 0.106,0.355 -0.134,0.454 0.329,1.017 -0.252,1.389 0.086,0.871 0.283,1.747 0.241,2.612 -0.221,4.618 0.244,9.171 1.176,13.685 0.787,3.81 2.353,7.337 3.985,10.959 0.245,-0.253 0.499,-0.391 0.539,-0.577 C -6.851,16.338 -5.238,12.976 -4.06,9.467 -3.265,7.1 -2.385,4.761 -1.495,2.428 -1.158,1.545 -0.988,0.551 -0.163,-0.081 0.092,-0.896 0.092,-0.896 0.644,-1.414 0.589,-1.176 0.573,-0.936 0.477,-0.734 0.352,-0.474 0.162,-0.243 0,0"
             style="fill:#1c1c1a;fill-opacity:1;fill-rule:nonzero;stroke:none"
             id="path30" />
        </g>
        <g
           id="g32"
           transform="translate(111.1621,172.7568)">
          <path
             d="m 0,0 c 0.384,0.04 0.748,0.115 0.915,0.53 0.526,0.258 0.722,0.726 0.801,1.268 0.596,-0.057 0.65,0.39 0.748,0.8 1.022,0.256 1.448,1.207 2.115,1.863 2.121,2.088 4.053,4.384 6.535,6.073 2.13,1.449 4.282,2.872 6.475,4.223 3.102,1.91 6.376,3.447 9.968,4.224 0.369,0.08 0.712,0.281 1.132,0.452 -1.449,2.337 -0.599,4.624 -0.148,6.927 -2.18,1.961 -4.006,4.199 -5.572,6.622 -2.327,3.602 -5.122,6.825 -7.901,10.065 -0.156,0.182 -0.293,0.616 -0.839,0.278 0.427,-0.592 0.854,-1.16 1.255,-1.745 2.187,-3.189 4.453,-6.334 5.999,-9.908 0.741,-1.714 1.607,-3.335 2.919,-4.689 0.076,-0.077 0.027,-0.274 0.043,-0.546 -0.638,10e-4 -1.275,-0.039 -1.905,0.009 -4.094,0.31 -8.181,0.857 -12.292,0.676 -1.8,-0.079 -3.294,0.345 -4.696,1.465 -2.269,1.813 -4.714,3.363 -7.359,4.594 -0.643,0.299 -1.208,0.768 -1.842,1.144 -0.559,0.161 -1.117,0.322 -1.675,0.484 -0.015,-0.097 -0.029,-0.195 -0.042,-0.291 0.595,-0.053 1.19,-0.105 1.786,-0.157 -0.017,-0.232 -0.138,-0.592 -0.034,-0.676 0.558,-0.454 1.168,-0.845 1.768,-1.246 1.737,-1.157 3.484,-2.297 5.21,-3.468 0.371,-0.252 0.838,-0.526 0.53,-1.249 -0.25,-0.02 -0.571,-0.118 -0.857,-0.056 -2.514,0.537 -5.043,1.021 -7.525,1.681 -3.584,0.951 -7.22,1.572 -10.899,1.965 -2.482,0.264 -4.971,0.319 -7.454,0.025 -0.432,-0.052 -0.996,0.059 -1.235,-0.516 -0.505,0.281 -0.994,0.406 -1.477,-0.157 0.543,-0.07 1.06,-0.38 1.45,0.218 0.547,-0.086 1.098,-0.268 1.639,-0.243 4.163,0.193 8.191,-0.547 12.117,-1.828 3.063,-0.999 6.076,-2.149 9.104,-3.251 0.257,-0.094 0.461,-0.335 0.715,-0.528 -0.958,-0.816 -0.957,-0.819 -1.46,-0.938 -1.489,-0.356 -2.991,-0.657 -4.463,-1.072 -3.721,-1.049 -7.428,-2.151 -11.142,-3.23 -3.18,-0.925 -6.282,-2.049 -9.194,-3.647 -0.528,-0.291 -1.02,-0.65 -1.527,-0.977 0.411,-0.154 0.68,-0.051 0.946,0.064 2.959,1.294 6.011,2.319 9.142,3.103 3.853,0.965 7.761,1.409 11.734,1.216 0.709,-0.034 1.465,0.039 2.051,-0.621 -0.89,-2.286 -3.072,-3.597 -4.329,-5.633 0.449,0.164 0.85,0.378 1.177,0.674 1.255,1.133 2.552,2.232 3.711,3.459 1.603,1.698 3.519,2.332 5.82,2.435 5.424,0.241 10.778,-0.304 16.124,-1.077 0.098,-0.014 0.167,-0.217 0.227,-0.298 C 16.56,17.201 14.77,15.989 13.12,14.609 9.27,11.388 6.159,7.463 2.965,3.626 2.724,3.336 2.651,2.906 2.501,2.541 1.92,2.576 1.869,2.127 1.76,1.73 1.071,1.567 1.074,0.975 0.962,0.453 0.614,0.294 0.266,0.135 -0.069,-0.022 -0.011,-0.127 0.048,-0.231 0.105,-0.336 0.042,-0.338 -0.022,-0.34 -0.087,-0.343 -0.058,-0.229 -0.029,-0.114 0,0 m -26.127,-14.31 c -2.555,1.191 -5.11,2.378 -7.662,3.572 -2.338,1.093 -4.62,2.283 -6.733,3.782 -0.585,0.415 -1.255,0.707 -2.005,1.121 0.73,0.585 1.64,0.506 2.435,0.693 0.843,0.199 1.725,0.23 2.89,0.371 -4.086,1.898 -7.914,3.677 -11.707,5.44 -0.036,0.689 0.474,0.685 0.795,0.749 1.011,0.199 2.039,0.32 3.096,0.477 -0.116,0.255 -0.144,0.472 -0.245,0.513 -3.014,1.246 -5.647,3.109 -8.088,5.217 -2.137,1.848 -4.246,3.697 -6.86,4.688 -0.099,0.552 0.174,0.713 0.513,0.705 0.641,-0.017 1.284,-0.071 1.92,-0.152 0.777,-0.098 1.544,-0.157 2.538,0.065 -3.1,1.751 -5.645,3.813 -7.872,6.293 -1.182,1.315 -2.538,2.474 -3.801,3.718 -0.335,0.331 -0.613,0.719 -1.1,1.297 0.702,0.005 1.154,0.028 1.603,0.006 0.391,-0.019 0.781,-0.088 1.258,-0.144 -1.584,2.462 -2.149,2.892 -5.814,4.332 3.5,-0.239 6.422,0.711 9.424,1.081 2.411,0.297 4.747,0.909 6.963,1.934 2.559,1.186 5.132,2.343 7.686,3.539 2.414,1.131 4.814,2.284 7.538,2.461 0.135,0.009 0.262,0.158 0.473,0.292 -0.335,1.347 -1.825,1.307 -2.606,2.01 0.024,0.171 0.01,0.29 0.049,0.31 0.137,0.071 0.29,0.121 0.441,0.156 1.254,0.292 2.507,0.594 3.766,0.862 1.418,0.302 2.881,0.449 4.255,0.883 2.758,0.871 5.468,1.891 8.204,2.851 -0.416,1.293 -1.858,0.971 -2.473,1.825 1.95,1.062 6.381,1.992 9.172,1.941 -0.33,1.138 -1.785,0.963 -2.357,1.871 0.19,0.165 0.286,0.325 0.392,0.331 1.606,0.093 3.217,0.127 4.82,0.25 4.527,0.346 5.16,0.315 9.333,-0.671 0.391,0.432 0.009,0.71 -0.218,0.995 -0.487,0.61 -0.997,1.2 -1.526,1.833 5.128,2.052 11.342,1.176 18.505,-2.586 0.12,0.366 0.251,0.699 0.338,1.044 0.156,0.624 0.263,1.26 0.438,1.877 0.084,0.297 0.28,0.563 0.483,0.957 0.554,-0.084 1.112,-0.094 1.622,-0.256 4.005,-1.279 7.858,-2.902 11.447,-5.117 1.851,-1.142 3.727,-2.242 5.556,-3.418 2.791,-1.792 5.215,-4.042 7.603,-6.323 0.753,-0.719 1.349,-1.583 1.904,-2.629 -0.56,-0.808 -1.081,-1.603 -1.645,-2.368 -2.933,-3.978 -4.271,-8.482 -4.151,-13.374 0.108,-4.423 1.188,-8.6 3.784,-12.297 1.63,-2.322 3.316,-4.566 5.932,-5.889 0.13,-0.067 0.207,-0.242 0.374,-0.446 -0.61,-6.705 -2.862,-12.903 -6.492,-18.712 -1.411,0.987 -1.768,2.591 -2.434,4.174 -2.655,-3.619 -6.037,-6.073 -9.496,-8.443 -0.85,-0.582 -1.649,-1.239 -2.528,-1.904 -1.122,1.118 -0.281,2.576 -0.887,3.859 -2.424,-3.364 -5.966,-4.73 -9.732,-5.869 -0.128,0.536 -0.216,0.902 -0.303,1.271 -5.37,-1.549 -7.256,-1.834 -10.361,-1.563 0.365,0.604 0.727,1.202 1.063,1.761 -0.337,0.542 -0.577,0.139 -0.853,0.077 -0.852,-0.194 -1.711,-0.44 -2.577,-0.487 -3.004,-0.164 -5.924,0.397 -9.035,1.169 0.454,0.578 0.82,1.043 1.189,1.513 -0.156,0.09 -0.302,0.246 -0.402,0.221 -3.173,-0.816 -6.223,-0.165 -9.373,0.675 0.11,0.529 0.202,0.963 0.293,1.397 -0.145,0.082 -0.288,0.237 -0.406,0.22 -2.136,-0.325 -4.161,0.112 -6.16,0.823 -1.337,0.476 -2.675,0.942 -3.892,1.606 0.202,1.043 1.511,0.683 1.675,1.602 0.139,0.006 0.276,0.016 0.414,0.025 -0.13,-0.029 -0.26,-0.058 -0.39,-0.087"
             style="fill:#1c1c1a;fill-opacity:1;fill-rule:nonzero;stroke:none"
             id="path34" />
        </g>
        <g
           id="g36"
           transform="translate(234.1025,332.7148)">
          <path
             d="M 0,0 C 1.177,-0.816 1.178,-0.82 2.35,0.053 1.475,0.033 0.838,0.019 0,0 M 2.609,-8.445 C 3.412,-8.613 3.952,-8.538 4.681,-8.197 3.83,-7.751 3.274,-7.76 2.609,-8.445 m 52.622,26.776 c 0.121,-0.643 0.157,-0.95 0.237,-1.246 0.646,-2.371 -0.047,-4.44 -1.405,-6.371 -0.897,-1.275 -2.069,-1.922 -3.668,-1.945 -1.418,-0.022 -2.701,0.304 -3.939,0.945 -2.695,1.394 -4.09,3.821 -5.039,6.528 -0.975,2.78 -0.289,3.997 2.57,4.857 1.465,0.441 2.952,0.806 4.434,1.184 1.247,0.319 2.489,0.68 3.756,0.894 2.944,0.497 5.584,-0.28 7.927,-2.103 2.308,-1.795 3.23,-4.171 2.769,-7.03 -0.19,-1.183 -0.522,-2.367 -0.971,-3.478 -0.664,-1.647 -0.805,-3.297 -0.275,-4.958 0.783,-2.451 1.633,-4.883 2.535,-7.293 0.299,-0.796 0.758,-1.561 1.449,-2.25 4.053,3.217 6.225,7.203 5.809,12.393 -0.103,1.281 -0.315,2.557 -0.525,3.827 -0.759,4.582 -3.276,7.984 -7.144,10.426 -2.879,1.818 -5.986,3.151 -9.282,4.002 -2.884,0.746 -5.743,0.574 -8.551,-0.445 -1.996,-0.725 -3.821,-1.755 -5.34,-3.226 -1.014,-0.983 -2.062,-1.141 -3.304,-0.658 -0.525,0.204 -1.051,0.406 -1.578,0.608 -1.787,0.685 -3.575,1.37 -5.534,2.12 -0.03,-0.614 -0.171,-1.1 -0.057,-1.515 1.081,-3.933 2.637,-7.644 5.74,-10.438 1.304,-1.176 2.8,-2.166 4.301,-3.091 2.258,-1.394 4.564,-2.725 7.139,-3.493 1.089,-0.325 2.167,-0.511 3.323,-0.421 4.503,0.349 6.863,4.101 7.528,7.119 0.489,2.22 -0.297,3.608 -2.905,5.058 M 34.079,37.048 c 0.05,0.289 0.021,0.772 0.165,0.832 0.472,0.194 1.009,0.068 1.235,-0.422 0.208,-0.451 0.239,-0.984 0.354,-1.511 1.182,0.426 0.71,2.077 2.101,2.371 0.144,-0.851 0.283,-1.67 0.448,-2.645 1.385,1.033 1.431,2.973 2.839,3.701 1.262,-0.54 0.35,-1.912 1.209,-2.532 0.619,0.299 0.598,0.922 0.779,1.416 0.25,0.68 0.421,1.389 0.682,2.064 0.069,0.178 0.345,0.376 0.529,0.378 0.179,0.003 0.434,-0.197 0.524,-0.375 0.172,-0.337 0.25,-0.721 0.388,-1.15 1.149,0.424 1.21,1.994 2.59,2.179 0.249,-0.619 0.51,-1.265 0.86,-2.134 0.974,1.274 1.604,2.65 2.923,3.614 0.407,-1.373 -0.363,-2.435 -0.446,-3.698 1.043,0.457 1.074,1.614 1.753,2.254 0.63,0.593 1.175,1.278 1.849,2.025 0.509,-0.62 0.24,-1.175 0.213,-1.673 -0.026,-0.479 -0.149,-0.954 -0.24,-1.429 -0.105,-0.548 -0.221,-1.095 -0.413,-2.045 1.383,2.005 2.055,4.01 3.82,5.672 -0.068,-1.953 -0.126,-3.586 -0.189,-5.397 1.081,1.356 2.099,2.493 2.59,3.991 0.107,0.326 0.501,0.559 0.821,0.896 0.876,-1.345 -0.299,-2.789 0.49,-4.091 1.234,1.016 1.49,2.775 3.086,3.621 0.129,-0.481 0.329,-0.842 0.297,-1.181 -0.142,-1.517 -0.35,-3.029 -0.554,-4.709 1.543,1.179 1.239,3.4 2.921,4.485 0.45,-1.772 -0.067,-3.479 -0.151,-5.466 0.965,0.67 1.226,1.538 1.654,2.244 0.399,0.659 0.634,1.418 1.043,2.369 1.359,-2.255 -0.398,-4.241 0.043,-6.407 0.241,0.237 0.438,0.348 0.507,0.511 0.563,1.345 0.971,2.725 0.99,4.207 0.006,0.44 0.363,0.737 0.816,0.714 0.467,-0.025 0.746,-0.407 0.729,-0.816 -0.088,-2.248 -0.227,-4.494 -0.347,-6.697 0.992,1.36 1.255,3.352 2.947,4.568 1.066,-1.338 0.397,-2.632 0.364,-3.84 -0.032,-1.192 -0.208,-2.38 -0.336,-3.722 1.795,1.711 1.932,4.184 3.346,5.872 0.669,-0.115 0.589,-0.558 0.517,-0.935 -0.429,-2.213 -0.88,-4.422 -1.396,-6.999 1.128,1.776 1.533,3.591 3.125,4.882 0.211,-2.238 -0.537,-4.188 -0.408,-6.395 0.97,1.302 1.711,2.636 2.985,3.702 0.559,-1.031 0.109,-1.84 -0.051,-2.655 -0.168,-0.855 -0.329,-1.712 -0.548,-2.849 0.586,0.206 0.919,0.323 1.495,0.525 0.129,-0.392 0.271,-0.826 0.406,-1.237 0.225,0.049 0.466,0.036 0.505,0.118 0.436,0.942 0.841,1.898 1.273,2.891 0.47,-0.797 0.283,-1.611 0.057,-2.38 -0.429,-1.453 -0.937,-2.883 -1.444,-4.417 1.366,0.558 2.091,1.796 3.088,2.616 0.655,-0.176 0.553,-0.656 0.471,-0.983 -0.312,-1.243 -0.693,-2.467 -1.073,-3.787 1.319,0.759 1.5,2.332 2.426,3.329 0.554,0.086 0.678,-0.339 0.76,-0.711 0.286,-1.283 0.225,-2.561 -0.179,-3.816 -0.196,-0.61 -0.415,-1.214 -0.608,-1.777 0.368,-0.578 0.713,-0.119 1.052,-0.116 0.69,0.006 1.382,-0.113 2.188,-0.191 -0.425,-1.218 -0.789,-2.26 -1.268,-3.634 0.978,0.615 1.685,1.058 2.491,1.564 C 95.98,10.528 95.472,9.419 95.1,8.313 94.958,7.892 94.777,7.484 94.462,6.683 95.446,7.244 96.058,7.591 96.771,7.998 97.088,7.631 97.366,7.307 97.665,6.96 96.053,6.015 96.053,6.015 95.344,4.581 96.145,4.028 97.301,5.189 98.016,3.979 97.344,3.189 96.646,2.37 95.921,1.518 96.767,0.6 97.492,1.446 98.217,1.449 98.559,1.012 98.271,0.74 97.96,0.468 c -0.599,-0.525 -1.249,-1.02 -1.251,-2.03 1.223,-0.254 1.894,1.2 3.136,0.972 0.027,-1.818 -2.297,-2.163 -2.542,-4.092 0.528,0.24 0.865,0.366 1.174,0.541 0.347,0.197 0.711,0.514 1.055,0.119 0.344,-0.395 0.068,-0.762 -0.282,-0.997 -0.965,-0.65 -1.522,-1.595 -2.098,-2.89 1.106,0.678 2.01,1.232 2.939,1.801 -0.132,-0.946 -0.353,-1.334 -1.333,-2.817 -0.596,-0.903 -1.661,-1.438 -1.969,-2.593 1.616,1.284 3.306,2.422 5.097,3.553 0.214,-0.712 -0.399,-0.834 -0.618,-1.17 -0.219,-0.335 -0.515,-0.618 -0.76,-0.938 -0.294,-0.383 -0.554,-0.793 -0.858,-1.167 -0.252,-0.31 -0.546,-0.584 -0.847,-0.901 1.461,0.012 1.705,0.075 2.986,0.841 1.175,0.702 2.327,1.445 3.52,2.117 0.452,0.254 0.987,0.36 1.66,0.271 -0.196,-0.204 -0.366,-0.442 -0.59,-0.608 -2.266,-1.69 -4.351,-3.582 -6.358,-5.567 -0.628,-0.621 -1.336,-1.166 -2.048,-1.692 -1.993,-1.472 -4.201,-1.924 -6.636,-1.411 -3.016,0.636 -5.848,1.807 -8.706,2.901 -5.813,2.227 -11.167,5.393 -16.721,8.151 -2.445,1.214 -4.98,2.298 -7.569,3.159 -3.323,1.104 -6.805,1.232 -10.282,0.878 -1.945,-0.198 -3.75,-0.897 -5.494,-1.769 -2.979,-1.491 -5.595,-3.492 -8.105,-5.659 -2.012,-1.738 -4.062,-3.431 -6.103,-5.135 -0.37,-0.309 -0.783,-0.565 -1.168,-0.858 -5.111,-3.894 -10.493,-3.502 -15.92,-0.86 -2.461,1.197 -4.749,2.724 -6.712,4.684 -0.497,0.497 -1.094,0.895 -1.721,1.4 0.444,0.387 0.846,0.738 1.395,1.218 -0.54,0.378 -0.966,0.688 -1.406,0.98 -0.517,0.343 -1.108,0.531 -1.377,1.24 -0.138,0.367 -0.721,0.587 -1.134,0.821 -0.393,0.224 -0.824,0.38 -1.35,0.616 1.017,0.822 2.448,0.095 3.208,1.294 -1.099,1.25 -2.711,1.502 -4.613,2.076 0.662,0.253 0.929,0.454 1.172,0.428 0.719,-0.075 1.425,-0.284 2.144,-0.351 0.357,-0.033 0.734,0.13 1.343,0.253 -0.977,0.677 -1.904,0.894 -2.517,1.734 -0.409,0.561 -1.354,0.731 -2.036,1.064 0.057,1.028 1.096,0.425 1.465,1.03 0.31,0.509 0.937,0.824 1.474,1.265 -0.449,0.523 -1.113,0.425 -1.701,0.506 -0.617,0.085 -1.012,0.408 -1.274,0.87 0.151,0.608 0.575,0.588 0.97,0.59 0.852,0.006 1.756,-0.356 2.564,0.422 -0.859,1.391 -2.503,1.78 -3.684,2.672 0.243,0.621 0.604,0.296 0.874,0.345 0.236,0.043 0.48,0.047 0.711,0.102 0.313,0.075 0.633,0.149 0.917,0.29 0.184,0.09 0.309,0.299 0.57,0.569 -1.164,0.689 -2.572,0.664 -3.616,1.717 0.862,0.147 1.59,0.271 2.337,0.398 -0.217,1.131 -1.405,0.763 -1.899,1.587 1.16,0.278 2.218,0.531 3.423,0.82 -0.499,1.184 -1.717,1.005 -2.354,1.663 -0.185,0.49 0.11,0.753 0.518,0.856 0.689,0.172 1.395,0.275 2.094,0.407 -0.117,0.885 -0.893,0.968 -1.318,1.405 -0.413,0.425 -0.715,0.887 -0.194,1.604 0.527,-0.022 1.134,-0.047 1.734,-0.071 0.031,0.211 0.11,0.384 0.064,0.511 -0.272,0.747 -0.571,1.483 -0.954,2.459 0.653,-0.062 1.08,-0.103 1.681,-0.16 -0.015,0.862 -0.117,1.723 -0.022,2.562 0.097,0.855 0.041,1.786 0.759,2.635 0.762,-0.532 0.378,-1.542 0.987,-2.167 0.462,0.049 0.268,0.593 0.487,0.814 0.325,0.326 0.756,0.576 0.99,0.953 0.197,0.321 0.191,0.773 0.253,1.17 0.06,0.386 0.092,0.776 0.166,1.414 0.778,-0.877 0.105,-2.059 0.999,-2.682 0.98,0.851 0.192,2.596 1.585,3.306 0.871,-1.25 -0.073,-2.604 0.489,-3.94 1.17,1.168 1.19,2.879 2.127,4.268 1.005,-1.092 -0.438,-2.115 0.259,-3.088 0.749,0.326 0.698,1.212 1.166,1.713 0.476,0.51 0.903,1.082 1.728,1.365 0.104,-0.728 0.192,-1.347 0.316,-2.222 0.39,0.659 0.678,1.149 0.944,1.599 0.931,-0.034 1.432,-0.581 1.949,-1.067 0.525,-0.495 1.076,-0.989 1.492,-1.573 2.112,-2.966 3.942,-6.104 5.014,-9.599 1.577,-5.14 2.085,-10.411 1.589,-15.772 -0.051,-0.545 -0.066,-1.093 0.162,-1.718 0.164,0.385 0.352,0.761 0.489,1.155 1.983,5.704 2.018,11.545 1.129,17.427 -0.396,2.626 -0.945,5.231 -1.478,7.835 -0.362,1.77 -0.339,3.5 0.083,5.264 0.504,2.108 1.752,3.388 3.849,3.869 0.39,0.089 0.781,0.17 1.24,0.27 0.344,-0.313 0.685,-0.624 1.16,-1.056 0.318,0.861 0.606,1.641 0.882,2.387 0.483,0.009 0.865,0.015 1.235,0.013 -0.104,-0.115 -0.225,-0.21 -0.277,-0.333 -0.028,-0.068 0.061,-0.185 0.096,-0.279 0.01,0.07 0.013,0.142 0.032,0.209 0.039,0.129 0.088,0.256 0.133,0.384"
             style="fill:#1c1c1a;fill-opacity:1;fill-rule:nonzero;stroke:none"
             id="path38" />
        </g>
        <g
           id="g40"
           transform="translate(369.8291,370.9917)">
          <path
             d="m 0,0 c 0.276,0.564 0.627,1.104 0.816,1.696 0.639,1.993 1.186,4.016 1.83,6.007 0.995,3.064 2.063,6.101 3.673,8.915 0.232,0.403 0.342,0.874 0.378,1.388 C 5.406,17.016 4.83,15.52 3.972,14.236 3.13,12.976 2.352,11.674 1.369,10.108 1.283,10.97 1.218,11.503 1.178,12.039 0.982,14.685 0.912,17.346 0.574,19.973 0.134,23.4 -0.488,26.805 -1.089,30.21 c -0.246,1.394 -0.177,2.687 0.428,3.995 1.559,3.372 2.702,6.895 3.58,10.5 1.033,4.243 1.56,8.545 1.353,12.919 -0.017,0.367 0.117,0.83 -0.434,0.968 0.413,0.522 0.387,1.096 0.204,1.687 C 3.931,60.685 3.82,61.091 3.71,61.5 3.743,61.614 3.775,61.726 3.808,61.838 3.82,61.785 3.859,61.716 3.84,61.682 3.809,61.629 3.737,61.6 3.684,61.561 3.827,61.147 3.502,60.575 4.1,60.314 3.746,59.779 3.572,59.226 3.886,58.613 3.671,56.299 3.482,53.982 3.236,51.671 2.79,47.494 1.91,43.423 0.005,39.642 c -0.502,-0.997 -1.156,-1.92 -1.763,-2.862 -0.156,-0.241 -0.398,-0.426 -0.679,-0.718 -0.206,0.315 -0.402,0.484 -0.431,0.68 -0.966,6.263 -1.907,12.53 -2.872,18.794 -0.22,1.426 -0.487,2.847 -0.788,4.259 -0.074,0.341 -0.369,0.635 -0.562,0.951 0.034,0.428 0.067,0.854 0.099,1.28 -0.062,0.075 -0.122,0.149 -0.184,0.224 0.051,0.03 0.102,0.061 0.152,0.092 0.029,-0.091 0.057,-0.181 0.077,-0.278 -0.227,-0.423 -0.487,-0.836 -0.088,-1.292 -0.403,-2.478 -0.221,-4.976 -0.156,-7.459 0.093,-3.556 -0.105,-7.084 -0.56,-10.603 -0.03,-0.228 -0.146,-0.444 -0.282,-0.839 -0.362,0.302 -0.679,0.501 -0.911,0.772 -2.565,3 -5.12,6.006 -7.666,9.022 -0.467,0.553 -0.918,1.127 -1.305,1.738 -1.552,2.451 -3.071,4.921 -4.61,7.38 -0.784,1.252 -0.97,2.453 -0.179,3.843 1.113,1.957 2.113,3.985 3.047,6.035 4.85,9.245 4.85,23.24 4.85,23.24 0,0 12.93,-5.755 19.889,-18.51 0.327,0.76 0.565,1.315 0.808,1.877 0.158,-0.053 0.35,-0.057 0.41,-0.147 0.879,-1.35 1.809,-2.672 2.586,-4.079 0.611,-1.109 1.029,-2.324 1.557,-3.549 0.914,0.928 0.153,2.186 0.751,3.381 0.985,-1.608 1.596,-3.207 2.236,-4.782 0.66,-1.629 1.224,-3.296 1.916,-5.176 0.346,0.785 0.608,1.376 0.865,1.957 0.273,-0.093 0.496,-0.101 0.543,-0.195 0.891,-1.8 1.836,-3.579 2.603,-5.432 0.317,-0.765 0.244,-1.691 0.354,-2.598 0.577,0.418 1.136,0.821 1.92,1.388 0.29,-2.272 0.43,-4.294 0.277,-6.711 0.768,0.656 1.164,0.996 1.564,1.337 0.114,-0.148 0.287,-0.274 0.27,-0.366 -0.244,-1.333 -0.513,-2.661 -0.797,-4.1 0.706,-0.27 1.137,0.673 1.911,0.609 0.109,-0.124 0.372,-0.285 0.386,-0.466 0.078,-0.953 0.205,-1.923 0.106,-2.865 -0.175,-1.661 -0.501,-3.307 -0.761,-4.932 0.344,-0.357 0.614,-0.09 0.897,0.02 0.21,0.081 0.424,0.154 0.632,0.229 0.086,-0.174 0.228,-0.323 0.201,-0.43 -0.297,-1.17 -0.636,-2.33 -0.927,-3.502 -0.21,-0.844 -0.364,-1.702 -0.515,-2.423 0.615,-0.707 1.006,0.137 1.47,-0.134 0.406,-0.212 0.439,-0.594 0.216,-0.976 -0.529,-0.903 -1.135,-1.762 -1.625,-2.684 -0.488,-0.914 -0.871,-1.884 -1.304,-2.839 0.907,-0.595 1.506,0.682 2.421,0.099 -0.817,-1.687 -1.672,-3.381 -2.46,-5.105 -0.77,-1.681 -1.47,-3.395 -2.275,-5.268 0.653,-0.04 1.213,-0.074 2.01,-0.123 C 21.992,15.998 20.843,14.781 19.687,13.571 17.185,10.951 14.719,8.294 12.164,5.727 9.257,2.806 5.723,0.937 1.773,-0.196 1.089,-0.392 0.517,-0.353 -0.047,0.068 -0.051,0.074 0,0 0,0"
             style="fill:#1c1c1a;fill-opacity:1;fill-rule:nonzero;stroke:none"
             id="path42" />
        </g>
        <g
           id="g44"
           transform="translate(401.665,292.8569)">
          <path
             d="m 0,0 c 0.302,0.124 0.491,0.144 0.582,0.249 1.616,1.859 3.69,2.477 6.075,2.279 0.721,-0.06 1.445,-0.085 2.161,-0.169 3.536,-0.414 6.927,-1.436 10.32,-2.458 1.301,-0.392 2.611,-0.755 4.016,-1.161 -0.096,0.227 -0.107,0.343 -0.161,0.368 C 19.864,0.572 16.764,2.079 13.482,3.214 8.359,4.987 3.241,5.055 -1.939,3.623 -2.221,3.545 -2.478,3.382 -2.93,3.175 -2.07,1.806 -0.769,1.11 0,0 m -13.961,-0.12 c 0.086,0.41 0.1,0.725 0.218,0.997 0.654,1.51 1.68,2.746 2.948,3.77 3.783,3.056 7.947,5.492 12.39,7.448 2.168,0.955 4.476,1.293 6.833,1.328 4.293,0.062 8.521,-0.388 12.663,-1.564 1.937,-0.55 3.884,-1.073 5.826,-1.606 6.641,-1.819 13.384,-2.836 20.29,-2.661 1.346,0.034 2.742,0.184 4.064,-0.548 0.68,-2.367 0.618,-4.756 0.195,-7.145 -0.778,-4.39 -3.05,-7.969 -6.35,-10.844 -6.182,-5.387 -13.45,-8.174 -21.639,-8.359 -5.212,-0.117 -10.008,1.552 -14.447,4.166 -2.332,1.374 -3.817,3.649 -5.358,5.825 -1.023,1.443 -2.07,2.879 -3.235,4.206 -2.509,2.856 -5.743,4.354 -9.507,4.696 -1.282,0.117 -2.574,0.112 -3.861,0.172 -0.299,0.014 -0.597,0.068 -1.03,0.119"
             style="fill:#1c1c1a;fill-opacity:1;fill-rule:nonzero;stroke:none"
             id="path46" />
        </g>
        <g
           id="g48"
           transform="translate(230.3281,160.9033)">
          <path
             d="m 0,0 c 0.393,-0.479 0.824,-0.933 1.172,-1.442 4.224,-6.211 10.026,-10.682 16.448,-14.281 5.846,-3.276 12.1,-5.678 18.839,-6.514 4.921,-0.611 9.808,-0.425 14.612,0.846 2.721,0.721 5.401,1.598 8.1,2.4 0.532,0.158 1.071,0.296 1.569,0.432 0.346,-0.424 0.096,-0.628 -0.149,-0.835 -1.657,-1.401 -3.318,-2.799 -4.972,-4.205 -1.779,-1.511 -3.627,-2.952 -5.31,-4.563 -2.205,-2.111 -4.286,-4.353 -6.41,-6.549 -1.341,-1.388 -2.658,-2.8 -3.997,-4.191 -0.434,-0.452 -0.903,-0.869 -1.321,-1.268 -0.55,0.218 -0.438,0.566 -0.29,0.829 1.395,2.474 2.319,5.121 3.067,7.851 0.295,1.075 0.819,2.088 1.244,3.143 -0.479,0.747 -1.259,0.607 -1.947,0.633 -4.297,0.161 -8.456,1.05 -12.565,2.263 -6.898,2.035 -13.054,5.45 -18.605,9.975 -2.76,2.251 -5.078,4.936 -7.131,7.838 C 0.786,-5.42 0.073,-2.868 0,0"
             style="fill:#1c1c1a;fill-opacity:1;fill-rule:nonzero;stroke:none"
             id="path50" />
        </g>
        <g
           id="g52"
           transform="translate(251.0059,155.8447)">
          <path
             d="M 0,0 C 0.097,-0.092 0.251,-0.172 0.271,-0.277 0.287,-0.359 0.135,-0.474 0.057,-0.573 0.031,-0.509 -0.021,-0.441 -0.015,-0.38 0,-0.24 0.042,-0.103 0.073,0.035 0.073,0.036 0,0 0,0"
             style="fill:#1c1c1a;fill-opacity:1;fill-rule:nonzero;stroke:none"
             id="path54" />
        </g>
        <g
           id="g56"
           transform="translate(149.7314,281.9712)">
          <path
             d="M 0,0 C -0.086,0.083 -0.172,0.167 -0.258,0.251 -0.38,-0.153 -0.164,-0.042 0.041,0.051 0.04,0.048 0,0 0,0"
             style="fill:#1c1c1a;fill-opacity:1;fill-rule:nonzero;stroke:none"
             id="path58" />
        </g>
        <g
           id="g60"
           transform="translate(152.9434,274.686)">
          <path
             d="M 0,0 C -0.13,-0.04 -0.258,-0.083 -0.39,-0.111 -0.402,-0.114 -0.437,-0.013 -0.46,0.04 -0.3,0.005 -0.14,-0.029 0.021,-0.069 0.022,-0.074 0,0 0,0"
             style="fill:#1c1c1a;fill-opacity:1;fill-rule:nonzero;stroke:none"
             id="path62" />
        </g>
        <g
           id="g64"
           transform="translate(156.96,305.3755)">
          <path
             d="m 0,0 -0.012,-0.204 -0.141,0.075 z"
             style="fill:#1c1c1a;fill-opacity:1;fill-rule:nonzero;stroke:none"
             id="path66" />
        </g>
        <g
           id="g68"
           transform="translate(188.3906,313.1963)">
          <path
             d="M 0,0 C -0.703,0.151 -1.548,-0.432 -2.356,0.529 -1.315,0.708 -0.642,0.366 0.029,-0.035 0.038,-0.046 0,0 0,0"
             style="fill:#1c1c1a;fill-opacity:1;fill-rule:nonzero;stroke:none"
             id="path70" />
        </g>
        <g
           id="g72"
           transform="translate(389.3467,194.7881)">
          <path
             d="M 0,0 C 0.081,-0.058 0.163,-0.115 0.245,-0.173 0.214,-0.129 0.191,-0.062 0.149,-0.045 0.097,-0.025 0.028,-0.047 -0.033,-0.047 -0.033,-0.043 0,0 0,0"
             style="fill:#1c1c1a;fill-opacity:1;fill-rule:nonzero;stroke:none"
             id="path74" />
        </g>
        <g
           id="g76"
           transform="translate(372.0459,316.1162)">
          <path
             d="M 0,0 C 0.154,0.003 0.32,0.041 0.459,-0.004 0.554,-0.034 0.611,-0.18 0.686,-0.275 0.557,-0.286 0.403,-0.347 0.306,-0.297 0.179,-0.233 0.097,-0.081 -0.009,0.044 -0.014,0.056 0,0 0,0"
             style="fill:#1c1c1a;fill-opacity:1;fill-rule:nonzero;stroke:none"
             id="path78" />
        </g>
      </g>
    </g>
  </g>
</svg>
